<?xml version="1.0" encoding="UTF-8"?>
<!DOCTYPE svg PUBLIC "-//W3C//DTD SVG 1.1//EN" "http://www.w3.org/Graphics/SVG/1.1/DTD/svg11.dtd">
<!-- Creator: CorelDRAW 2018 (64 Bit Versão de avaliação) -->
<svg xmlns="http://www.w3.org/2000/svg" xml:space="preserve" width="300px" height="300px" version="1.1" style="shape-rendering:geometricPrecision; text-rendering:geometricPrecision; image-rendering:optimizeQuality; fill-rule:evenodd; clip-rule:evenodd"
viewBox="0 0 411.91 411.91"
 xmlns:xlink="http://www.w3.org/1999/xlink">
 <defs>
  <style type="text/css">
   <![CDATA[
    .fil0 {fill:none}
    .fil2 {fill:#3B3B3B;fill-rule:nonzero}
    .fil1 {fill:#DFC89F;fill-rule:nonzero}
   ]]>
  </style>
 </defs>
 <g id="Camada_x0020_1">
  <metadata id="CorelCorpID_0Corel-Layer"/>
  <g id="_2529505343664">
   <g>
    <rect class="fil0" x="4.76" y="4.76" width="402.39" height="402.39"/>
    <path class="fil1" d="M125 411.91l-125 0c0.01,-41.67 0.01,-83.33 0.01,-125l9.51 0 0 115.48 115.48 0 0 9.52z"/>
    <polygon class="fil1" points="286.91,0 411.91,0 411.91,125 402.39,125 402.39,9.52 286.91,9.52 "/>
   </g>
   <g>
    <path class="fil2" d="M178.53 199.2c19.08,3.46 35.96,-15.31 22.15,-23.89 -9.09,-5.65 -19.78,-8.93 -31.24,-8.93 12.01,-2.71 24.01,-1.55 34.7,2.64 2.61,1.03 5.18,-1.48 4.31,-4.15 -5.95,-18.34 -27.49,-25.18 -47.52,-8.91 -10.53,8.56 -14.49,10.38 -14.59,10.42 6.95,6.95 14.88,30.24 32.19,32.82z"/>
    <path class="fil2" d="M215.23 127.52c0.69,-17.77 9.53,-31.2 26.02,-38.63 -7.4,9.58 -12.25,20.31 -14.76,31.4 -3.9,17.28 -7.98,28.61 -9.47,83.68 -0.16,5.59 4.37,10.21 9.95,10.14 4.05,-0.05 7.51,-2.62 9.07,-6.35 2.36,-5.68 6.21,-11.56 12.48,-16.94 5.95,6.58 15.01,10.08 24.38,8.38 17.24,-2.56 25.29,-25.91 32.2,-32.82 -0.1,-0.04 -4.06,-1.86 -14.6,-10.42 -34.57,-28.08 -56.61,16.2 -42.91,11.81 9.73,-3.12 20.38,-3.79 31.05,-1.39 -18.09,0 -34.76,8.29 -45.87,21.78 0.91,-21.2 2.29,-34.47 3.89,-44.34 9.24,-0.32 21.55,-7.78 28.31,-20.83 11.66,-20.85 6.26,-42.24 4.52,-55.73l-0.02 0c-9.12,8.85 -48.88,-1.52 -64.65,25.49 -6.96,11.94 -4.94,26.47 2.39,37.1 2.32,3.36 7.87,1.75 8.02,-2.33z"/>
    <path class="fil2" d="M341.32 224.57c-10.81,-7.33 -22.57,-2.11 -27.97,1.01l-67.79 49.62 -39.69 0 -9.92 -9.92 36.45 0c10.96,0 23.24,-7.14 23.24,-19.85 0,-13.49 -12.28,-19.85 -23.24,-19.85l-13.66 0c-10.14,0 -22,0.91 -30.36,-3.57 -7.95,-4.04 -17.09,-6.34 -26.86,-6.34 -16.39,0 -31.07,6.54 -41.13,16.84l-53.43 52.61 59.54 59.53 19.84 -29.76 93.78 0c10,0 19.65,-3.67 27.13,-10.32l74.75 -66.4c4.15,-3.69 3.92,-10.48 -0.68,-13.6z"/>
   </g>
  </g>
 </g>
</svg>
