<?xml version="1.0" encoding="UTF-8"?>
<!DOCTYPE svg PUBLIC "-//W3C//DTD SVG 1.1//EN" "http://www.w3.org/Graphics/SVG/1.1/DTD/svg11.dtd">
<!-- Creator: CorelDRAW 2018 (64 Bit Versão de avaliação) -->
<svg xmlns="http://www.w3.org/2000/svg" xml:space="preserve" width="300px" height="300px" version="1.1" style="shape-rendering:geometricPrecision; text-rendering:geometricPrecision; image-rendering:optimizeQuality; fill-rule:evenodd; clip-rule:evenodd"
viewBox="0 0 245.7 245.7"
 xmlns:xlink="http://www.w3.org/1999/xlink">
 <defs>
  <style type="text/css">
   <![CDATA[
    .fil0 {fill:#DFC89F}
    .fil1 {fill:#3B3B3B;fill-rule:nonzero}
   ]]>
  </style>
 </defs>
 <g id="Camada_x0020_1">
  <metadata id="CorelCorpID_0Corel-Layer"/>
  <g id="_2529510740512">
   <g>
    <rect class="fil0" x="2.84" y="2.84" width="240.02" height="240.02"/>
    <path class="fil1" d="M171.14 245.7l74.56 0c-0.01,-24.86 -0.01,-49.71 -0.01,-74.56l-5.67 0 0 68.88 -68.88 0 0 5.68z"/>
    <polygon class="fil1" points="74.56,0 0,0 0,74.56 5.68,74.56 5.68,5.68 74.56,5.68 "/>
   </g>
   <g>
    <g>
     <path class="fil1" d="M192.58 73.23l-7.2 7.21c8.46,12.41 13.01,27.06 13.01,42.41 0,20.17 -7.86,39.15 -22.13,53.41 -14.26,14.27 -33.23,22.13 -53.41,22.13 -15.35,0 -30,-4.55 -42.41,-13.01l-7.21 7.2c14.39,10.29 31.58,15.84 49.62,15.84 22.86,0 44.34,-8.91 60.51,-25.07 16.16,-16.16 25.06,-37.65 25.06,-60.5 0,-18.04 -5.55,-35.23 -15.84,-49.62z"/>
     <path class="fil1" d="M60.32 165.26c-8.46,-12.41 -13.01,-27.06 -13.01,-42.41 0,-20.18 7.86,-39.15 22.12,-53.42 14.27,-14.26 33.24,-22.12 53.42,-22.12 15.35,0 30,4.55 42.41,13.01l7.21 -7.2c-14.39,-10.29 -31.58,-15.84 -49.62,-15.84 -22.86,0 -44.34,8.9 -60.51,25.06 -16.16,16.17 -25.06,37.65 -25.06,60.51 0,18.04 5.55,35.23 15.84,49.61l7.2 -7.2z"/>
    </g>
    <path class="fil1" d="M114.65 83.15l2.47 -2.88 -26.99 0 -26.82 30.93 27.22 0 24.12 -28.05zm-17.66 28.05l50.98 0 -13.85 -16.12 -11.64 -13.52 -17.56 20.43 -7.93 9.21zm-33.35 4.9l50.68 53.33 -24.23 -53.33 -26.45 0zm85.86 0l-54.04 0 26.87 59.11 0.16 0.37 25.6 -56.37 1.41 -3.11zm-18.79 53.25l50.6 -53.25 -26.43 0 -24.17 53.25zm50.93 -58.15l-26.83 -30.93 -26.98 0 26.6 30.93 27.21 0z"/>
   </g>
  </g>
 </g>
</svg>
