<?xml version="1.0" encoding="UTF-8"?>
<!DOCTYPE svg PUBLIC "-//W3C//DTD SVG 1.1//EN" "http://www.w3.org/Graphics/SVG/1.1/DTD/svg11.dtd">
<!-- Creator: CorelDRAW 2018 (64 Bit Versão de avaliação) -->
<svg xmlns="http://www.w3.org/2000/svg" xml:space="preserve" width="1000px" height="367px" version="1.1" style="shape-rendering:geometricPrecision; text-rendering:geometricPrecision; image-rendering:optimizeQuality; fill-rule:evenodd; clip-rule:evenodd"
viewBox="0 0 2081.25 764.53"
 xmlns:xlink="http://www.w3.org/1999/xlink">
 <defs>
  <style type="text/css">
   <![CDATA[
    .fil0 {fill:#3B3B3B;fill-rule:nonzero}
   ]]>
  </style>
 </defs>
 <g id="Camada_x0020_1">
  <metadata id="CorelCorpID_0Corel-Layer"/>
  <g id="_2706311934608">
   <path class="fil0" d="M98.43 699.27c1.05,0 1.48,0.42 1.9,1.27l19.64 51.96c1.27,3.38 0,5.28 -1.27,5.7 -0.84,0.21 -1.47,0.63 -1.47,1.48 0,1.26 2.32,1.26 6.33,1.48 14.58,0.42 29.99,0.42 33.16,0.42 2.33,0 4.23,-0.42 4.23,-1.69 0,-1.06 -1.06,-1.27 -2.33,-1.27 -1.69,0 -5.07,-0.21 -8.23,-1.27 -4.44,-1.26 -10.56,-4.64 -18.17,-23.44 -12.88,-32.11 -46.04,-119.34 -49.21,-127.36 -2.54,-6.55 -3.38,-7.61 -4.65,-7.61 -1.27,0 -2.11,1.27 -4.65,8.24l-47.94 131.16c-3.8,10.57 -8.03,18.59 -17.74,19.86 -1.69,0.21 -3.59,0.42 -5.07,0.42 -1.9,0 -2.96,0.42 -2.96,1.27 0,1.27 1.27,1.69 4.01,1.69 9.93,0 21.55,-0.64 23.87,-0.64 2.32,0 10.77,0.64 15.84,0.64 1.9,0 3.8,-0.42 3.8,-1.69 0,-0.85 -0.63,-1.27 -2.74,-1.27 -0.64,0 -1.27,0 -1.9,0 -3.59,0 -7.61,-1.9 -7.61,-6.12 0,-3.81 1.06,-8.88 2.96,-14.16l12.67 -37.38c0.43,-1.06 1.06,-1.69 2.12,-1.69l45.41 0zm-43.09 -7.6c-0.64,0 -1.06,-0.43 -0.64,-1.48l18.59 -57.03c1.06,-3.17 2.11,-3.17 3.17,0l20.07 57.03c0.21,0.84 0.21,1.48 -0.85,1.48l-40.34 0zm147.88 -28.52c0,-32.95 0,-38.86 0.42,-45.62 0.42,-7.39 2.11,-10.98 8.24,-12.04 2.53,-0.42 5.49,-0.63 6.97,-0.63 0.84,0 1.69,-0.43 1.69,-1.27 0,-1.27 -1.06,-1.69 -3.38,-1.69 -6.34,0 -21.76,0.63 -22.81,0.63 -1.06,0 -14.37,-0.63 -23.87,-0.63 -2.32,0 -3.38,0.42 -3.38,1.69 0,0.84 0.84,1.27 1.69,1.27 1.9,0 5.49,0.21 7.18,0.63 6.97,1.48 8.66,4.86 9.08,12.04 0.42,6.76 0.42,12.67 0.42,45.62l0 37.18c0,20.27 0,36.96 -1.05,45.83 -0.85,6.12 -1.9,10.77 -6.13,11.62 -1.9,0.42 -4.43,0.84 -6.33,0.84 -1.27,0 -1.69,0.64 -1.69,1.27 0,1.27 1.05,1.69 3.38,1.69 7.81,0 14.15,-0.64 20.7,-0.64 20.48,0 38.44,1.27 56.6,1.27 11.2,0 11.83,-0.84 13.31,-5.7 1.69,-6.13 3.17,-18.8 3.17,-21.12 0,-2.33 -0.22,-3.17 -1.27,-3.17 -1.27,0 -1.69,1.06 -1.9,2.74 -0.64,4.02 -2.75,9.3 -5.49,12.68 -5.07,6.12 -14.37,6.33 -25.56,6.33 -16.48,0 -21.97,-1.47 -25.35,-4.85 -3.8,-3.81 -4.64,-17.32 -4.64,-48.37l0 -37.6zm131.61 -52.17c8.87,0.21 17.74,0.21 26.61,0.42 20.28,0.43 25.35,5.28 25.98,11.62 0,0.85 0.22,1.48 0.22,2.32 0.21,2.96 0.63,3.59 1.68,3.59 0.85,0 1.48,-0.84 1.48,-2.74 0,-2.32 0.64,-16.9 0.64,-23.24 0,-1.26 0,-2.53 -1.06,-2.53 -0.84,0 -2.74,0.63 -5.91,1.06 -3.38,0.63 -8.24,1.05 -15,1.05l-79.21 0c-2.53,0 -10.56,-0.42 -16.68,-1.05 -5.7,-0.43 -7.82,-2.54 -9.3,-2.54 -0.84,0 -1.68,2.75 -2.11,4.01 -0.42,1.7 -4.64,19.86 -4.64,21.97 0,1.27 0.42,1.9 1.05,1.9 0.85,0 1.48,-0.42 2.11,-2.11 0.64,-1.48 1.27,-2.96 3.59,-6.55 3.38,-5.07 8.45,-6.54 21.55,-6.76 10.35,-0.21 20.91,-0.21 31.26,-0.42l0 89.35c0,20.27 0,36.96 -1.06,45.83 -0.84,6.12 -1.9,10.77 -6.12,11.62 -1.9,0.42 -4.44,0.84 -6.34,0.84 -1.27,0 -1.69,0.64 -1.69,1.27 0,1.27 1.06,1.69 3.38,1.69 6.34,0 19.64,-0.64 20.7,-0.64 1.06,0 14.36,0.64 25.98,0.64 2.32,0 3.38,-0.64 3.38,-1.69 0,-0.63 -0.42,-1.27 -1.69,-1.27 -1.9,0 -6.55,-0.42 -9.51,-0.84 -6.33,-0.85 -7.6,-5.5 -8.23,-11.62 -1.06,-8.87 -1.06,-25.56 -1.06,-45.83l0 -89.35zm149.15 153.55c50.9,0 84.27,-39.07 84.27,-86.38 0,-49.22 -35.48,-79.21 -83.01,-79.21 -58.29,0 -83.22,48.37 -83.22,82.59 0,38.02 24.08,83 81.96,83zm5.7 -8.02c-38.02,0 -67.59,-31.68 -67.59,-80.9 0,-46.25 26.4,-69.49 61.68,-69.49 33.37,0 64.2,27.25 64.2,77.94 0,61.47 -39.28,72.45 -58.29,72.45zm120.84 -56.18c0,18.79 -0.21,29.57 -0.42,37.8 -0.42,15.84 -3.17,18.8 -7.6,19.86 -1.48,0.42 -2.75,0.42 -4.86,0.63 -1.27,0.21 -2.33,0.64 -2.33,1.27 0,1.27 1.06,1.69 3.38,1.69 5.5,0.21 10.56,-0.64 15.63,-0.64 8.24,0 17.96,0.43 26.41,0.64 8.23,0.21 15.2,0.63 30.83,0.63 8.24,0 9.93,0 11.41,-5.49 1.06,-4.44 2.74,-18.8 2.74,-20.49 0,-1.48 0,-3.17 -1.26,-3.17 -1.06,0 -1.48,0.85 -1.9,3.17 -1.69,9.08 -4.02,13.52 -10.78,15.63 -5.7,1.69 -12.67,1.9 -19,1.9 -8.24,0 -13.95,-0.42 -17.54,-1.9 -5.28,-2.11 -6.54,-6.76 -6.97,-15.42 -0.21,-4.43 0,-28.93 0,-36.11l0 -18.59c0,-0.85 0.43,-1.48 1.48,-1.48 3.59,0 24.5,0.42 30.21,1.06 7.6,0.84 10.14,3.8 10.98,6.97 0.63,1.9 0.84,4.01 0.84,5.91 0,1.69 0.22,3.38 1.48,3.38 0.85,0 1.27,-1.06 1.48,-3.17 0.21,-2.96 0.21,-7.81 0.85,-14.36 0.63,-6.97 1.69,-10.56 1.69,-11.83 0,-1.27 -0.43,-1.69 -1.06,-1.69 -0.85,0 -1.48,0.85 -2.53,2.11 -2.12,2.54 -4.86,3.17 -10.57,3.59 -4.85,0.43 -30.83,0.43 -33.58,0.43 -1.06,0 -1.27,-0.64 -1.27,-2.12l0 -58.29c0,-1.48 0.43,-2.11 1.27,-2.11 2.32,0 25.35,0.21 28.94,0.63 9.29,0.85 13.73,2.96 15.21,7.82 0.63,1.68 1.05,4.22 1.05,6.97 0,1.68 0.42,2.74 1.69,2.74 0.85,0 1.48,-1.48 1.69,-3.59 0.42,-5.49 0.63,-9.5 0.85,-12.67 0.42,-5.92 1.69,-8.45 1.69,-9.93 0,-1.06 -0.22,-1.9 -0.85,-1.9 -0.63,0 -1.06,0.21 -2.32,0.84 -1.27,0.64 -5.07,1.06 -9.72,1.27 -4.86,0.21 -46.89,0.21 -48.37,0.21 -13.3,-0.63 -19.01,-0.63 -23.86,-0.63 -2.33,0 -3.38,0.42 -3.38,1.69 0,0.84 1.26,1.06 2.74,1.27 1.9,0.21 4.65,0.21 6.13,0.63 6.97,1.48 8.66,4.86 9.08,12.04 0.42,6.76 0.42,12.67 0.42,45.62l0 37.18zm57.03 -136.66c-1.48,-1.48 -2.53,-1.69 -3.59,-1.69 -0.85,0 -3.17,1.27 -6.13,3.38 -5.49,3.59 -20.06,16.47 -25.98,21.97 -1.05,1.05 -1.68,1.9 -1.68,2.53 0,0.42 0.84,0.85 1.26,0.85 0.42,0 1.9,-0.64 3.38,-1.27 7.18,-3.38 19.43,-9.08 29.99,-12.89 3.38,-1.26 7.82,-1.69 8.66,-1.69 0.85,0 1.9,-0.63 0.85,-2.74 -1.9,-3.8 -4.65,-6.55 -6.76,-8.45zm134.78 136.66c0,18.79 -0.21,29.57 -0.42,37.8 -0.42,15.84 -3.17,18.8 -7.6,19.86 -1.48,0.42 -2.75,0.42 -4.86,0.63 -1.27,0.21 -2.33,0.64 -2.33,1.27 0,1.27 1.06,1.69 3.38,1.69 5.5,0.21 10.56,-0.64 15.63,-0.64 8.24,0 17.96,0.43 26.41,0.64 8.23,0.21 15.2,0.63 30.83,0.63 8.24,0 9.93,0 11.41,-5.49 1.06,-4.44 2.75,-18.8 2.75,-20.49 0,-1.48 0,-3.17 -1.27,-3.17 -1.06,0 -1.48,0.85 -1.9,3.17 -1.69,9.08 -4.02,13.52 -10.77,15.63 -5.71,1.69 -12.68,1.9 -19.01,1.9 -8.24,0 -13.94,-0.42 -17.54,-1.9 -5.28,-2.11 -6.54,-6.76 -6.97,-15.42 -0.21,-4.43 0,-28.93 0,-36.11l0 -18.59c0,-0.85 0.43,-1.48 1.48,-1.48 3.59,0 24.5,0.42 30.21,1.06 7.6,0.84 10.14,3.8 10.98,6.97 0.63,1.9 0.85,4.01 0.85,5.91 0,1.69 0.21,3.38 1.47,3.38 0.85,0 1.27,-1.06 1.48,-3.17 0.21,-2.96 0.21,-7.81 0.85,-14.36 0.63,-6.97 1.69,-10.56 1.69,-11.83 0,-1.27 -0.43,-1.69 -1.06,-1.69 -0.84,0 -1.48,0.85 -2.53,2.11 -2.12,2.54 -4.86,3.17 -10.56,3.59 -4.86,0.43 -30.84,0.43 -33.59,0.43 -1.05,0 -1.27,-0.64 -1.27,-2.12l0 -58.29c0,-1.48 0.43,-2.11 1.27,-2.11 2.33,0 25.35,0.21 28.94,0.63 9.29,0.85 13.73,2.96 15.21,7.82 0.63,1.68 1.05,4.22 1.05,6.97 0,1.68 0.42,2.74 1.69,2.74 0.85,0 1.48,-1.48 1.69,-3.59 0.42,-5.49 0.64,-9.5 0.85,-12.67 0.42,-5.92 1.69,-8.45 1.69,-9.93 0,-1.06 -0.22,-1.9 -0.85,-1.9 -0.63,0 -1.05,0.21 -2.32,0.84 -1.27,0.64 -5.07,1.06 -9.72,1.27 -4.86,0.21 -46.89,0.21 -48.37,0.21 -13.3,-0.63 -19.01,-0.63 -23.86,-0.63 -2.33,0 -3.38,0.42 -3.38,1.69 0,0.84 1.26,1.06 2.74,1.27 1.9,0.21 4.65,0.21 6.13,0.63 6.97,1.48 8.66,4.86 9.08,12.04 0.42,6.76 0.42,12.67 0.42,45.62l0 37.18zm191.81 0c0,20.27 0,36.96 -1.05,45.83 -0.85,6.12 -1.9,10.77 -6.13,11.62 -1.9,0.42 -4.43,0.84 -6.33,0.84 -1.27,0 -1.69,0.64 -1.69,1.27 0,1.27 1.05,1.69 3.38,1.69 6.33,0 19.64,-0.64 20.27,-0.64 1.06,0 14.36,0.64 25.98,0.64 2.32,0 3.38,-0.64 3.38,-1.69 0,-0.63 -0.42,-1.27 -1.69,-1.27 -1.9,0 -6.55,-0.42 -9.5,-0.84 -6.34,-0.85 -7.61,-5.5 -8.24,-11.62 -1.06,-8.87 -1.06,-25.56 -1.06,-45.83l0 -86.81c0,-2.12 0.43,-3.6 1.69,-4.02 1.9,-0.84 5.49,-1.26 9.09,-1.26 4.85,0 17.74,-0.85 28.93,10.56 11.2,11.4 11.83,25.55 11.83,30.83 0,22.18 -16.05,36.12 -36.54,36.12 -4.44,0 -5.7,0.21 -5.7,1.9 0,1.06 1.26,1.48 2.32,1.48 1.06,0.21 3.38,0.21 4.44,0.21 29.99,0 51.96,-20.27 51.96,-47.73 0,-13.73 -5.92,-23.24 -10.57,-27.67 -3.38,-3.17 -12.88,-12.04 -39.28,-12.04 -9.72,0 -21.97,0.63 -26.62,0.63 -1.69,0 -14.36,-0.63 -23.86,-0.63 -2.33,0 -3.38,0.42 -3.38,1.69 0,0.84 0.84,1.27 1.69,1.27 1.9,0 5.49,0.21 7.18,0.63 6.97,1.48 8.66,4.86 9.08,12.04 0.42,6.76 0.42,12.67 0.42,45.62l0 37.18zm125.49 0c0,20.27 0,36.96 -1.05,45.83 -0.85,6.12 -2.12,10.98 -6.34,11.83 -1.9,0.42 -4.22,0.63 -5.49,0.63 -1.9,0 -2.32,0.64 -2.32,1.27 0,1.27 1.05,1.69 3.37,1.69 6.34,0 19.65,-0.64 20.7,-0.64 1.06,0 14.58,0.64 26.19,0.64 2.33,0 3.17,-0.64 3.17,-1.69 0,-0.63 -0.63,-1.27 -2.53,-1.27 -1.27,0 -5.7,-0.42 -8.66,-0.84 -6.34,-0.85 -7.61,-5.5 -8.24,-11.62 -1.05,-8.87 -1.05,-25.56 -1.05,-45.83l0 -37.18c0,-32.95 0,-38.86 0.42,-45.62 0.42,-7.39 2.11,-10.98 7.81,-12.04 2.54,-0.42 3.8,-0.63 5.28,-0.63 0.85,0 1.69,-0.43 1.69,-1.27 0,-1.27 -1.05,-1.69 -3.38,-1.69 -6.33,0 -19.64,0.63 -20.7,0.63 -1.05,0 -14.36,-0.63 -21.33,-0.63 -2.32,0 -3.38,0.42 -3.38,1.69 0,0.84 0.85,1.27 1.69,1.27 1.48,0 4.23,0.21 6.55,0.84 4.65,1.06 6.76,4.65 7.18,11.83 0.42,6.76 0.42,12.67 0.42,45.62l0 37.18zm230.26 -95.68c-0.43,-4.02 -1.06,-5.71 -2.54,-5.71 -1.48,0 -2.32,1.48 -3.17,3.38l-62.09 132.64 -64.64 -132.85c-1.05,-2.32 -1.9,-3.17 -3.16,-3.17 -1.27,0 -2.12,1.9 -2.33,4.23l-15.21 137.29c-1.05,8.66 -1.47,16.26 -8.44,17.53 -3.17,0.63 -4.65,0.63 -6.34,0.63 -1.06,0 -2.11,0.42 -2.11,1.27 0,1.48 1.48,1.69 3.59,1.69 5.7,0 15.84,-0.64 17.74,-0.64 1.69,0 12.46,0.64 20.28,0.64 2.11,0 3.16,-0.42 3.16,-1.9 0,-0.64 -0.84,-1.06 -2.11,-1.06 -1.26,0 -4.01,0 -7.6,-0.84 -3.17,-0.64 -5.7,-2.33 -5.7,-7.61 0,-3.59 0.21,-6.55 0.42,-9.92l8.66 -99.49c2.32,5.71 26.61,57.88 28.51,61.68 1.06,2.11 19.22,38.65 24.71,49 4.02,7.6 5.07,9.72 6.55,9.72 1.9,0 2.54,-1.9 6.97,-11.2l52.38 -111.1 10.14 110.26c0.42,3.8 0.64,6.97 -0.84,7.6 -1.06,0.42 -1.48,0.63 -1.48,1.48 0,1.06 1.05,1.69 5.91,2.11 7.82,0.63 31.9,1.27 36.54,1.27 2.54,0 3.17,-0.42 3.17,-1.69 0,-1.06 -1.27,-1.27 -2.32,-1.27 -2.11,0 -6.97,0 -13.1,-1.9 -9.08,-2.96 -10.56,-14.78 -11.4,-22.39l-14.15 -129.68zm73.1 95.68c0,18.79 -0.21,29.57 -0.42,37.8 -0.42,15.84 -3.17,18.8 -7.6,19.86 -1.48,0.42 -2.75,0.42 -4.86,0.63 -1.27,0.21 -2.32,0.64 -2.32,1.27 0,1.27 1.05,1.69 3.37,1.69 5.5,0.21 10.57,-0.64 15.64,-0.64 8.23,0 17.95,0.43 26.4,0.64 8.23,0.21 15.2,0.63 30.83,0.63 8.24,0 9.93,0 11.41,-5.49 1.06,-4.44 2.75,-18.8 2.75,-20.49 0,-1.48 0,-3.17 -1.27,-3.17 -1.06,0 -1.48,0.85 -1.9,3.17 -1.69,9.08 -4.02,13.52 -10.77,15.63 -5.71,1.69 -12.68,1.9 -19.01,1.9 -8.24,0 -13.94,-0.42 -17.53,-1.9 -5.29,-2.11 -6.55,-6.76 -6.97,-15.42 -0.22,-4.43 0,-28.93 0,-36.11l0 -18.59c0,-0.85 0.42,-1.48 1.47,-1.48 3.59,0 24.5,0.42 30.21,1.06 7.6,0.84 10.14,3.8 10.98,6.97 0.63,1.9 0.85,4.01 0.85,5.91 0,1.69 0.21,3.38 1.47,3.38 0.85,0 1.27,-1.06 1.48,-3.17 0.21,-2.96 0.21,-7.81 0.85,-14.36 0.63,-6.97 1.69,-10.56 1.69,-11.83 0,-1.27 -0.43,-1.69 -1.06,-1.69 -0.84,0 -1.48,0.85 -2.53,2.11 -2.12,2.54 -4.86,3.17 -10.56,3.59 -4.86,0.43 -30.84,0.43 -33.59,0.43 -1.05,0 -1.26,-0.64 -1.26,-2.12l0 -58.29c0,-1.48 0.42,-2.11 1.26,-2.11 2.33,0 25.35,0.21 28.94,0.63 9.29,0.85 13.73,2.96 15.21,7.82 0.63,1.68 1.05,4.22 1.05,6.97 0,1.68 0.43,2.74 1.69,2.74 0.85,0 1.48,-1.48 1.69,-3.59 0.42,-5.49 0.64,-9.5 0.85,-12.67 0.42,-5.92 1.69,-8.45 1.69,-9.93 0,-1.06 -0.22,-1.9 -0.85,-1.9 -0.63,0 -1.05,0.21 -2.32,0.84 -1.27,0.64 -5.07,1.06 -9.72,1.27 -4.86,0.21 -46.89,0.21 -48.37,0.21 -13.3,-0.63 -19.01,-0.63 -23.86,-0.63 -2.33,0 -3.38,0.42 -3.38,1.69 0,0.84 1.26,1.06 2.74,1.27 1.9,0.21 4.65,0.21 6.13,0.63 6.97,1.48 8.66,4.86 9.08,12.04 0.42,6.76 0.42,12.67 0.42,45.62l0 37.18zm116.23 30.2c0,19.22 -1.05,25.35 -6.33,26.82 -3.17,1.06 -6.97,1.27 -8.66,1.27 -1.06,0 -1.69,0.42 -1.69,1.27 0,1.48 1.27,1.69 3.38,1.69 9.5,0 18.37,-0.64 20.31,-0.64 1.9,0 10.35,0.64 22.35,0.64 2.54,0 3.8,-0.42 3.8,-1.69 0,-0.85 -0.63,-1.27 -1.68,-1.27 -1.91,0 -6.52,-0.21 -10.53,-1.27 -5.7,-1.69 -7.82,-7.18 -8.24,-24.5l-2.74 -101.17c6.76,7.6 30.59,34.22 55.05,60.62 22.36,24.08 52.74,55.13 55.06,57.24 11.19,11.19 13.76,13.52 15.45,13.52 1.48,0 1.91,-1.06 1.91,-15l0.42 -123.35c0,-14.57 1.48,-17.74 7.39,-19.01 2.53,-0.42 3.8,-0.63 5.49,-0.84 1.48,-0.21 2.32,-0.64 2.32,-1.48 0,-1.27 -1.47,-1.48 -3.8,-1.48 -8.66,0 -15.63,0.63 -17.99,0.63 -2.32,0 -12.46,-0.63 -21.93,-0.63 -2.53,0 -4.22,0.21 -4.22,1.48 0,0.84 0.63,1.48 2.96,1.48 1.9,0 5.24,0.21 9.04,1.05 6.55,1.69 8.03,6.34 8.24,20.07l2.32 107.3c-6.76,-6.97 -29.74,-32.74 -50.62,-55.13 -32.49,-34.85 -63.93,-68.86 -67.09,-72.45 -2.12,-2.11 -5.74,-6.76 -7.43,-6.76 -1.69,0 -2.32,2.33 -2.32,10.56 0.21,40.98 -0.22,13.52 -0.22,89.77l0 31.26zm246.27 -119.55c8.87,0.21 17.75,0.21 26.62,0.42 20.27,0.43 25.34,5.28 25.98,11.62 0,0.85 0.21,1.48 0.21,2.32 0.21,2.96 0.63,3.59 1.69,3.59 0.84,0 1.48,-0.84 1.48,-2.74 0,-2.32 0.63,-16.9 0.63,-23.24 0,-1.26 0,-2.53 -1.06,-2.53 -0.84,0 -2.74,0.63 -5.91,1.06 -3.38,0.63 -8.24,1.05 -15,1.05l-79.2 0c-2.54,0 -10.56,-0.42 -16.69,-1.05 -5.7,-0.43 -7.81,-2.54 -9.29,-2.54 -0.85,0 -1.69,2.75 -2.11,4.01 -0.43,1.7 -4.65,19.86 -4.65,21.97 0,1.27 0.42,1.9 1.05,1.9 0.85,0 1.48,-0.42 2.12,-2.11 0.63,-1.48 1.26,-2.96 3.59,-6.55 3.38,-5.07 8.45,-6.54 21.54,-6.76 10.35,-0.21 20.91,-0.21 31.26,-0.42l0 89.35c0,20.27 0,36.96 -1.05,45.83 -0.85,6.12 -1.91,10.77 -6.13,11.62 -1.9,0.42 -4.44,0.84 -6.34,0.84 -1.26,0 -1.69,0.64 -1.69,1.27 0,1.27 1.06,1.69 3.38,1.69 6.34,0 19.65,-0.64 20.7,-0.64 1.06,0 14.37,0.64 25.98,0.64 2.33,0 3.38,-0.64 3.38,-1.69 0,-0.63 -0.42,-1.27 -1.69,-1.27 -1.9,0 -6.55,-0.42 -9.5,-0.84 -6.34,-0.85 -7.61,-5.5 -8.24,-11.62 -1.06,-8.87 -1.06,-25.56 -1.06,-45.83l0 -89.35zm95.29 89.35c0,18.79 -0.21,29.57 -0.42,37.8 -0.43,15.84 -3.17,18.8 -7.61,19.86 -1.48,0.42 -2.74,0.42 -4.86,0.63 -1.26,0.21 -2.32,0.64 -2.32,1.27 0,1.27 1.06,1.69 3.38,1.69 5.49,0.21 10.56,-0.64 15.63,-0.64 8.24,0 17.95,0.43 26.4,0.64 8.24,0.21 15.21,0.63 30.84,0.63 8.24,0 9.93,0 11.41,-5.49 1.05,-4.44 2.74,-18.8 2.74,-20.49 0,-1.48 0,-3.17 -1.27,-3.17 -1.05,0 -1.47,0.85 -1.9,3.17 -1.69,9.08 -4.01,13.52 -10.77,15.63 -5.7,1.69 -12.67,1.9 -19.01,1.9 -8.24,0 -13.94,-0.42 -17.53,-1.9 -5.28,-2.11 -6.55,-6.76 -6.97,-15.42 -0.21,-4.43 0,-28.93 0,-36.11l0 -18.59c0,-0.85 0.42,-1.48 1.48,-1.48 3.59,0 24.5,0.42 30.2,1.06 7.61,0.84 10.14,3.8 10.99,6.97 0.63,1.9 0.84,4.01 0.84,5.91 0,1.69 0.21,3.38 1.48,3.38 0.84,0 1.27,-1.06 1.48,-3.17 0.21,-2.96 0.21,-7.81 0.84,-14.36 0.64,-6.97 1.69,-10.56 1.69,-11.83 0,-1.27 -0.42,-1.69 -1.05,-1.69 -0.85,0 -1.48,0.85 -2.54,2.11 -2.11,2.54 -4.86,3.17 -10.56,3.59 -4.86,0.43 -30.84,0.43 -33.58,0.43 -1.06,0 -1.27,-0.64 -1.27,-2.12l0 -58.29c0,-1.48 0.42,-2.11 1.27,-2.11 2.32,0 25.34,0.21 28.93,0.63 9.3,0.85 13.73,2.96 15.21,7.82 0.64,1.68 1.06,4.22 1.06,6.97 0,1.68 0.42,2.74 1.69,2.74 0.84,0 1.48,-1.48 1.69,-3.59 0.42,-5.49 0.63,-9.5 0.84,-12.67 0.43,-5.92 1.69,-8.45 1.69,-9.93 0,-1.06 -0.21,-1.9 -0.84,-1.9 -0.64,0 -1.06,0.21 -2.33,0.84 -1.26,0.64 -5.06,1.06 -9.71,1.27 -4.86,0.21 -46.89,0.21 -48.37,0.21 -13.31,-0.63 -19.01,-0.63 -23.87,-0.63 -2.32,0 -3.38,0.42 -3.38,1.69 0,0.84 1.27,1.06 2.75,1.27 1.9,0.21 4.65,0.21 6.12,0.63 6.97,1.48 8.66,4.86 9.09,12.04 0.42,6.76 0.42,12.67 0.42,45.62l0 37.18zm136.26 -37.18c0,-32.95 0,-38.86 0.42,-45.62 0.42,-7.39 2.11,-10.98 8.24,-12.04 2.53,-0.42 5.49,-0.63 6.97,-0.63 0.85,0 1.69,-0.43 1.69,-1.27 0,-1.27 -1.06,-1.69 -3.38,-1.69 -6.34,0 -21.75,0.63 -22.81,0.63 -1.06,0 -14.36,-0.63 -23.87,-0.63 -2.32,0 -3.38,0.42 -3.38,1.69 0,0.84 0.85,1.27 1.69,1.27 1.9,0 5.49,0.21 7.18,0.63 6.97,1.48 8.66,4.86 9.09,12.04 0.42,6.76 0.42,12.67 0.42,45.62l0 37.18c0,20.27 0,36.96 -1.06,45.83 -0.84,6.12 -1.9,10.77 -6.12,11.62 -1.9,0.42 -4.44,0.84 -6.34,0.84 -1.27,0 -1.69,0.64 -1.69,1.27 0,1.27 1.06,1.69 3.38,1.69 7.81,0 14.15,-0.64 20.7,-0.64 20.49,0 38.44,1.27 56.61,1.27 11.19,0 11.82,-0.84 13.3,-5.7 1.69,-6.13 3.17,-18.8 3.17,-21.12 0,-2.33 -0.21,-3.17 -1.27,-3.17 -1.26,0 -1.69,1.06 -1.9,2.74 -0.63,4.02 -2.74,9.3 -5.49,12.68 -5.07,6.12 -14.36,6.33 -25.56,6.33 -16.47,0 -21.96,-1.47 -25.34,-4.85 -3.81,-3.81 -4.65,-17.32 -4.65,-48.37l0 -37.6z"/>
   <path class="fil0" d="M1049.49 270.81c1.39,0 1.95,0.56 2.5,1.67l25.86 68.39c1.66,4.45 0,6.95 -1.67,7.51 -1.11,0.27 -1.95,0.83 -1.95,1.94 0,1.67 3.06,1.67 8.34,1.95 19.18,0.55 39.48,0.55 43.65,0.55 3.06,0 5.56,-0.55 5.56,-2.22 0,-1.39 -1.39,-1.67 -3.06,-1.67 -2.23,0 -6.67,-0.28 -10.84,-1.67 -5.84,-1.67 -13.9,-6.11 -23.91,-30.85 -16.96,-42.26 -60.6,-157.07 -64.77,-167.64 -3.34,-8.61 -4.45,-10 -6.12,-10 -1.67,0 -2.78,1.66 -6.12,10.84l-63.1 172.63c-5,13.9 -10.56,24.47 -23.35,26.14 -2.23,0.27 -4.73,0.55 -6.67,0.55 -2.51,0 -3.9,0.56 -3.9,1.67 0,1.67 1.67,2.22 5.29,2.22 13.06,0 28.35,-0.83 31.41,-0.83 3.06,0 14.18,0.83 20.85,0.83 2.5,0 5,-0.55 5,-2.22 0,-1.11 -0.83,-1.67 -3.61,-1.67 -0.84,0 -1.67,0 -2.5,0 -4.73,0 -10.01,-2.5 -10.01,-8.06 0,-5 1.39,-11.68 3.89,-18.63l16.68 -49.2c0.56,-1.39 1.39,-2.23 2.78,-2.23l59.77 0zm-56.71 -10c-0.84,0 -1.39,-0.56 -0.84,-1.95l24.47 -75.06c1.39,-4.17 2.78,-4.17 4.17,0l26.41 75.06c0.28,1.11 0.28,1.95 -1.11,1.95l-53.1 0zm104.62 11.39c0,26.69 0,48.65 -1.39,60.33 -1.12,8.06 -2.51,14.18 -8.07,15.29 -2.5,0.56 -5.83,1.11 -8.34,1.11 -1.66,0 -2.22,0.84 -2.22,1.67 0,1.67 1.39,2.22 4.45,2.22 8.34,0 25.85,-0.83 26.69,-0.83 1.39,0 18.9,0.83 34.19,0.83 3.06,0 4.45,-0.83 4.45,-2.22 0,-0.83 -0.56,-1.67 -2.23,-1.67 -2.5,0 -8.62,-0.55 -12.51,-1.11 -8.34,-1.11 -10,-7.23 -10.84,-15.29 -1.39,-11.68 -1.39,-33.64 -1.39,-60.33l0 -114.25c0,-2.78 0.56,-4.73 2.23,-5.28 2.5,-1.12 7.22,-1.67 11.95,-1.67 6.39,0 23.35,-1.11 38.08,13.9 14.74,15.01 15.57,33.64 15.57,40.59 0,29.18 -21.13,47.53 -48.09,47.53 -5.84,0 -7.51,0.28 -7.51,2.5 0,1.39 1.67,1.95 3.06,1.95 1.39,0.28 4.45,0.28 5.84,0.28 39.48,0 68.39,-26.69 68.39,-62.83 0,-18.07 -7.79,-30.58 -13.9,-36.42 -4.45,-4.17 -16.96,-15.84 -51.71,-15.84 -12.79,0 -28.91,0.83 -35.03,0.83 -2.22,0 -18.9,-0.83 -31.41,-0.83 -3.06,0 -4.45,0.55 -4.45,2.22 0,1.11 1.11,1.67 2.22,1.67 2.51,0 7.23,0.28 9.46,0.83 9.17,1.95 11.39,6.4 11.95,15.85 0.56,8.9 0.56,16.68 0.56,60.05l0 48.92z"/>
   <polygon class="fil0" points="886.93,63.37 1248.06,63.37 1248.06,121.99 1241.83,121.99 1241.83,69.6 890.05,69.6 890.05,121.99 883.82,121.99 883.82,63.37 "/>
   <polygon class="fil0" points="886.93,425.34 1248.06,425.34 1248.06,366.72 1241.83,366.72 1241.83,419.11 890.05,419.11 890.05,366.72 883.82,366.72 883.82,425.34 "/>
   <path class="fil0" d="M1068.36 2.42l142.32 142.32 -9.69 0 -135.05 -135.05 -135.06 135.05 -9.69 0c48.25,-48.25 96.49,-96.5 144.75,-144.74l2.42 2.42z"/>
   <path class="fil0" d="M1068.36 511.23l142.32 -142.32 -9.69 0 -135.05 135.06 -135.06 -135.06 -9.69 0c48.25,48.25 96.49,96.51 144.75,144.75l2.42 -2.43z"/>
  </g>
 </g>
</svg>
