<?xml version="1.0" encoding="UTF-8"?>
<!DOCTYPE svg PUBLIC "-//W3C//DTD SVG 1.1//EN" "http://www.w3.org/Graphics/SVG/1.1/DTD/svg11.dtd">
<!-- Creator: CorelDRAW 2018 (64 Bit Versão de avaliação) -->
<svg xmlns="http://www.w3.org/2000/svg" xml:space="preserve" width="300px" height="300px" version="1.1" style="shape-rendering:geometricPrecision; text-rendering:geometricPrecision; image-rendering:optimizeQuality; fill-rule:evenodd; clip-rule:evenodd"
viewBox="0 0 546.35 546.35"
 xmlns:xlink="http://www.w3.org/1999/xlink">
 <defs>
  <style type="text/css">
   <![CDATA[
    .fil1 {fill:none}
    .fil0 {fill:#3B3B3B;fill-rule:nonzero}
    .fil2 {fill:#DFC89F;fill-rule:nonzero}
   ]]>
  </style>
 </defs>
 <g id="Camada_x0020_1">
  <metadata id="CorelCorpID_0Corel-Layer"/>
  <g id="_2741429442720">
   <g>
    <path class="fil0" d="M123.15 390.87c0,17.83 14.5,32.33 32.33,32.33l235.39 0c17.83,0 32.33,-14.5 32.33,-32.33l0 -174.81 -300.05 0 0 174.81zm203.29 -17.98c-7.36,7.36 -19.28,7.36 -26.63,0 -7.36,-7.35 -7.36,-19.28 0,-26.63 7.35,-7.35 19.27,-7.35 26.63,0 7.35,7.36 7.35,19.28 0,26.63zm-6.66 -99.86c7.35,7.35 7.35,19.27 0,26.63l-66.58 66.58c-7.35,7.35 -19.28,7.35 -26.63,-0.01 -7.35,-7.35 -7.36,-19.27 0,-26.63l66.58 -66.57c7.35,-7.36 19.28,-7.36 26.63,0zm-99.87 -6.66c7.36,-7.36 19.28,-7.36 26.63,0 7.36,7.35 7.36,19.27 0,26.63 -7.35,7.35 -19.27,7.35 -26.63,0 -7.35,-7.36 -7.35,-19.28 0,-26.63z"/>
    <path class="fil0" d="M390.87 141.98l-6.58 0 0 18.21c0,4.85 -3.94,8.79 -8.79,8.79 -4.86,0 -8.79,-3.94 -8.79,-8.79l0 -28.25c0,-4.85 -3.94,-8.79 -8.79,-8.79 -4.86,0 -8.8,3.94 -8.8,8.79l0 10.04 -21.33 0 0 18.21c0,4.85 -3.93,8.79 -8.79,8.79 -4.85,0 -8.79,-3.94 -8.79,-8.79l0 -28.25c0,-4.85 -3.93,-8.79 -8.79,-8.79 -4.85,0 -8.79,3.94 -8.79,8.79l0 10.04 -21.33 0 0 18.21c0,4.85 -3.94,8.79 -8.79,8.79 -4.85,0 -8.79,-3.94 -8.79,-8.79l0 -28.25c0,-4.85 -3.94,-8.79 -8.79,-8.79 -4.85,0 -8.79,3.94 -8.79,8.79l0 10.04 -21.33 0 0 18.21c0,4.85 -3.94,8.79 -8.79,8.79 -4.86,0 -8.79,-3.94 -8.79,-8.79l0 -28.25c0,-4.85 -3.94,-8.79 -8.79,-8.79 -4.86,0 -8.8,3.94 -8.8,8.79l0 10.04 -24.16 0c-8.61,0 -16.72,3.37 -22.84,9.49 -6.12,6.12 -9.49,14.23 -9.49,22.84l0 24.17 300.05 0 0 -24.17c0,-17.82 -14.5,-32.32 -32.33,-32.33z"/>
   </g>
   <g>
    <rect class="fil1" x="6.32" y="6.32" width="533.72" height="533.72"/>
    <path class="fil2" d="M165.8 546.35l-165.8 0c0.01,-55.26 0.01,-110.53 0.01,-165.8l12.62 0 0 153.17 153.17 0 0 12.63z"/>
    <polygon class="fil2" points="380.55,0 546.35,0 546.35,165.8 533.72,165.8 533.72,12.63 380.55,12.63 "/>
   </g>
  </g>
 </g>
</svg>
