<?xml version="1.0" encoding="UTF-8"?>
<!DOCTYPE svg PUBLIC "-//W3C//DTD SVG 1.1//EN" "http://www.w3.org/Graphics/SVG/1.1/DTD/svg11.dtd">
<!-- Creator: CorelDRAW 2018 (64 Bit Versão de avaliação) -->
<svg xmlns="http://www.w3.org/2000/svg" xml:space="preserve" width="300px" height="300px" version="1.1" style="shape-rendering:geometricPrecision; text-rendering:geometricPrecision; image-rendering:optimizeQuality; fill-rule:evenodd; clip-rule:evenodd"
viewBox="0 0 80.39 80.39"
 xmlns:xlink="http://www.w3.org/1999/xlink">
 <defs>
  <style type="text/css">
   <![CDATA[
    .fil0 {fill:#DFC89F}
    .fil1 {fill:#3B3B3B;fill-rule:nonzero}
   ]]>
  </style>
 </defs>
 <g id="Camada_x0020_1">
  <metadata id="CorelCorpID_0Corel-Layer"/>
  <g id="_2529716169728">
   <g>
    <rect class="fil0" x="0.93" y="0.93" width="78.54" height="78.54"/>
    <path class="fil1" d="M56 80.39l24.39 0c0,-8.13 0,-16.26 0,-24.39l-1.85 0 0 22.54 -22.54 0 0 1.85z"/>
    <polygon class="fil1" points="24.4,0 0,0 0,24.4 1.86,24.4 1.86,1.86 24.4,1.86 "/>
   </g>
   <g>
    <path class="fil1" d="M36.16 66.6l0.61 0c0.84,0 1.53,-0.68 1.53,-1.53l0 -17.79 11.07 17.67c0.44,0.71 1.39,0.93 2.1,0.48l0.52 -0.32c0.72,-0.45 0.93,-1.39 0.48,-2.1l-12.2 -19.47c0.52,-0.74 0.82,-1.65 0.82,-2.63 0,-0.98 -0.31,-1.89 -0.83,-2.64l-8.38 2.06c-0.02,0.19 -0.03,0.39 -0.03,0.59 0,0.98 0.3,1.88 0.82,2.63l-12.21 19.46c-0.44,0.71 -0.23,1.65 0.49,2.11l0.51 0.32c0.72,0.44 1.66,0.23 2.11,-0.48l11.07 -17.68 0 17.79c0,0.85 0.68,1.53 1.52,1.53z"/>
    <path class="fil1" d="M17.95 39.47c0.07,0 7.13,-1.72 7.13,-1.72 -0.83,-1.36 -1.52,-3.1 -1.97,-4.95 -0.46,-1.87 -0.65,-3.72 -0.54,-5.31l-6.93 1.7c-1.11,0.27 -1.45,2.79 -0.76,5.62 0.65,2.67 1.98,4.66 3.07,4.66z"/>
    <path class="fil1" d="M35.4 21.99l-9.43 2.31c-0.35,0.08 -0.65,0.32 -0.89,0.68 -0.18,0.29 -0.33,0.64 -0.45,1.05 -0.08,0.3 -0.15,0.63 -0.19,0.99 -0.18,1.45 -0.05,3.34 0.44,5.33 0.49,2 1.25,3.73 2.08,4.93 0.2,0.3 0.41,0.57 0.62,0.79 0.3,0.32 0.6,0.56 0.89,0.73 0.27,0.15 0.55,0.24 0.81,0.24 0.1,0 0.19,-0.02 0.29,-0.04l9 -2.2 0.47 -0.12c-1.38,-1.87 -2.45,-4.49 -3.09,-7.1 -0.66,-2.69 -0.86,-5.35 -0.58,-7.49 0.02,-0.03 0.02,-0.06 0.03,-0.1z"/>
    <path class="fil1" d="M65.83 30.52l-3.81 -15.56c-0.17,-0.69 -0.79,-1.16 -1.48,-1.16l-0.01 0c-0.12,0 -0.24,0.01 -0.36,0.04l-21.07 5.16c-0.25,0.06 -0.47,0.18 -0.68,0.37 -0.3,0.26 -0.56,0.64 -0.76,1.12 -0.13,0.31 -0.23,0.65 -0.32,1.02 -0.43,1.91 -0.33,4.68 0.4,7.64 0.74,3.03 1.97,5.58 3.27,7.05 0.26,0.3 0.52,0.55 0.78,0.75 0.07,0.06 0.15,0.11 0.23,0.15 0.58,0.34 1.29,0.43 1.94,0.26l20.75 -5.01c0.82,-0.19 1.32,-1.01 1.12,-1.83z"/>
   </g>
  </g>
 </g>
</svg>
