<?xml version="1.0" encoding="UTF-8"?>
<!DOCTYPE svg PUBLIC "-//W3C//DTD SVG 1.1//EN" "http://www.w3.org/Graphics/SVG/1.1/DTD/svg11.dtd">
<!-- Creator: CorelDRAW 2018 (64 Bit Versão de avaliação) -->
<svg xmlns="http://www.w3.org/2000/svg" xml:space="preserve" width="300px" height="300px" version="1.1" style="shape-rendering:geometricPrecision; text-rendering:geometricPrecision; image-rendering:optimizeQuality; fill-rule:evenodd; clip-rule:evenodd"
viewBox="0 0 3432979.69 3432975"
 xmlns:xlink="http://www.w3.org/1999/xlink">
 <defs>
  <style type="text/css">
   <![CDATA[
    .fil0 {fill:none}
    .fil2 {fill:#3B3B3B;fill-rule:nonzero}
    .fil1 {fill:#DFC89F;fill-rule:nonzero}
   ]]>
  </style>
 </defs>
 <g id="Camada_x0020_1">
  <metadata id="CorelCorpID_0Corel-Layer"/>
  <g id="_2741257241968">
   <g>
    <rect class="fil0" x="39693.79" y="39689.1" width="3353596.8" height="3353596.8"/>
    <path class="fil1" d="M1041801.56 3432975l-1041801.56 0c42.19,-347264.06 70.31,-694528.12 84.38,-1041796.87l79298.43 0 0 962418.75 962418.75 0 0 79378.12z"/>
    <polygon class="fil1" points="2391182.81,0 3432979.69,0 3432979.69,1041796.88 3353601.56,1041796.88 3353601.56,79378.13 2391182.81,79378.13 "/>
   </g>
   <g>
    <path class="fil2" d="M2069100 800039.06c0,-155385.93 -126248.44,-286448.43 -281578.12,-286678.12l-810.94 0c-155339.06,229.69 -286275,131292.19 -286275,286678.12 0,155517.19 131165.62,286682.82 286682.81,286682.82 155517.19,0 281981.25,-131165.63 281981.25,-286682.82z"/>
    <path class="fil2" d="M1359445.31 1368703.13l0 70495.31c0,38967.19 31528.13,70495.31 70495.32,70495.31l709654.68 0c38967.19,0 70495.32,-31528.12 70495.32,-70495.31l0 -70495.31c0,-108721.88 -42370.32,-206981.25 -110010.94,-281981.25 -77475,85903.12 -188437.5,140990.62 -312960.94,140990.62 -124523.44,0 -240187.5,-55087.5 -317662.5,-140990.62 -67640.62,75000 -110010.94,173259.37 -110010.94,281981.25z"/>
    <path class="fil2" d="M835312.5 1956867.19c-34687.5,-69553.13 -119114.06,-97912.5 -188751.56,-63412.5l-93895.31 46514.06c-34959.38,17334.38 -49185.94,59826.56 -31734.38,94725l422971.88 845948.44c17395.31,34884.37 59704.68,48768.75 94387.5,31664.06l92685.93 -45918.75c69909.38,-34626.56 98404.69,-119456.25 63590.63,-189267.19l-359254.69 -720253.12z"/>
    <path class="fil2" d="M2861943.75 1677473.44c-57810.94,-42295.31 -138173.44,-33839.06 -186107.81,18328.12l-385373.44 473732.82c-26789.06,28195.31 -77545.31,45117.18 -104334.37,45117.18l-328514.07 0c-39482.81,0 -70495.31,-31012.5 -70495.31,-70495.31 0,-39482.81 31012.5,-70500 70495.31,-70500 94415.63,0 198946.88,0 281981.25,0 77545.32,0 140990.63,-63445.31 140990.63,-140990.62 0,-77540.63 -63445.31,-140990.63 -140990.63,-140990.63 -331073.43,0 -15276.56,0 -369398.43,0 -35132.82,0 -52654.69,-22279.69 -80362.5,-46532.81 -109078.13,-98151.56 -272343.75,-145439.06 -437634.38,-107128.13 -91771.87,21271.88 -153665.62,58350 -216431.25,108060.94l-2095.31 -1696.87 -101967.19 89737.5 400720.31 803507.81 807168.75 0c132529.69,0 259429.69,-63445.31 338381.25,-169190.63l413573.44 -592162.5c18900,-25204.68 28026.56,-55059.37 27951.56,-84745.31 -112.5,-43392.19 -19889.06,-86423.44 -57557.81,-114051.56z"/>
   </g>
  </g>
 </g>
</svg>
