<?xml version="1.0" encoding="UTF-8"?>
<!DOCTYPE svg PUBLIC "-//W3C//DTD SVG 1.1//EN" "http://www.w3.org/Graphics/SVG/1.1/DTD/svg11.dtd">
<!-- Creator: CorelDRAW 2018 (64 Bit Versão de avaliação) -->
<svg xmlns="http://www.w3.org/2000/svg" xml:space="preserve" width="1000px" height="411px" version="1.1" style="shape-rendering:geometricPrecision; text-rendering:geometricPrecision; image-rendering:optimizeQuality; fill-rule:evenodd; clip-rule:evenodd"
viewBox="0 0 1000 410.52"
 xmlns:xlink="http://www.w3.org/1999/xlink">
 <defs>
  <style type="text/css">
   <![CDATA[
    .fil0 {fill:#DFC89F;fill-rule:nonzero}
   ]]>
  </style>
 </defs>
 <g id="Camada_x0020_1">
  <metadata id="CorelCorpID_0Corel-Layer"/>
  <g id="_2706311343936">
   <path class="fil0" d="M47.29 335.99c0.51,0 0.71,0.2 0.92,0.6l9.43 24.97c0.61,1.62 0,2.54 -0.61,2.74 -0.4,0.1 -0.71,0.3 -0.71,0.71 0,0.61 1.12,0.61 3.05,0.71 7,0.2 14.41,0.2 15.93,0.2 1.12,0 2.03,-0.2 2.03,-0.81 0,-0.51 -0.51,-0.61 -1.11,-0.61 -0.82,0 -2.44,-0.1 -3.96,-0.61 -2.13,-0.61 -5.08,-2.23 -8.73,-11.26 -6.19,-15.43 -22.12,-57.34 -23.65,-61.2 -1.21,-3.14 -1.62,-3.65 -2.23,-3.65 -0.61,0 -1.01,0.61 -2.23,3.96l-23.04 63.02c-1.83,5.07 -3.86,8.93 -8.52,9.54 -0.82,0.1 -1.73,0.2 -2.44,0.2 -0.91,0 -1.42,0.21 -1.42,0.61 0,0.61 0.61,0.81 1.93,0.81 4.77,0 10.35,-0.3 11.47,-0.3 1.11,0 5.17,0.3 7.61,0.3 0.91,0 1.82,-0.2 1.82,-0.81 0,-0.4 -0.3,-0.61 -1.31,-0.61 -0.31,0 -0.61,0 -0.92,0 -1.72,0 -3.65,-0.91 -3.65,-2.94 0,-1.83 0.51,-4.26 1.42,-6.8l6.09 -17.96c0.2,-0.51 0.51,-0.81 1.01,-0.81l21.82 0zm-20.7 -3.66c-0.31,0 -0.51,-0.2 -0.31,-0.71l8.94 -27.4c0.5,-1.52 1.01,-1.52 1.52,0l9.64 27.4c0.1,0.41 0.1,0.71 -0.41,0.71l-19.38 0zm71.05 -13.7c0,-15.83 0,-18.67 0.2,-21.92 0.21,-3.55 1.02,-5.28 3.96,-5.78 1.22,-0.21 2.64,-0.31 3.35,-0.31 0.41,0 0.81,-0.2 0.81,-0.61 0,-0.61 -0.5,-0.81 -1.62,-0.81 -3.04,0 -10.45,0.31 -10.96,0.31 -0.51,0 -6.9,-0.31 -11.47,-0.31 -1.11,0 -1.62,0.2 -1.62,0.81 0,0.41 0.4,0.61 0.81,0.61 0.91,0 2.64,0.1 3.45,0.31 3.35,0.71 4.16,2.33 4.36,5.78 0.21,3.25 0.21,6.09 0.21,21.92l0 17.86c0,9.75 0,17.76 -0.51,22.03 -0.41,2.94 -0.91,5.17 -2.94,5.58 -0.92,0.2 -2.13,0.4 -3.05,0.4 -0.61,0 -0.81,0.31 -0.81,0.61 0,0.61 0.51,0.81 1.62,0.81 3.76,0 6.8,-0.3 9.95,-0.3 9.84,0 18.47,0.61 27.2,0.61 5.38,0 5.68,-0.41 6.39,-2.74 0.81,-2.94 1.52,-9.03 1.52,-10.15 0,-1.12 -0.1,-1.52 -0.61,-1.52 -0.6,0 -0.81,0.5 -0.91,1.32 -0.3,1.92 -1.32,4.46 -2.64,6.09 -2.43,2.94 -6.9,3.04 -12.28,3.04 -7.91,0 -10.55,-0.71 -12.18,-2.33 -1.82,-1.83 -2.23,-8.33 -2.23,-23.24l0 -18.07zm63.24 -25.07c4.26,0.11 8.52,0.11 12.79,0.21 9.74,0.2 12.18,2.53 12.48,5.58 0,0.41 0.1,0.71 0.1,1.12 0.1,1.42 0.31,1.72 0.81,1.72 0.41,0 0.71,-0.4 0.71,-1.32 0,-1.11 0.31,-8.12 0.31,-11.16 0,-0.61 0,-1.22 -0.51,-1.22 -0.41,0 -1.32,0.3 -2.84,0.51 -1.62,0.3 -3.96,0.51 -7.21,0.51l-38.05 0c-1.22,0 -5.08,-0.21 -8.02,-0.51 -2.74,-0.21 -3.76,-1.22 -4.47,-1.22 -0.4,0 -0.81,1.32 -1.01,1.93 -0.2,0.81 -2.23,9.54 -2.23,10.55 0,0.61 0.2,0.92 0.5,0.92 0.41,0 0.71,-0.21 1.02,-1.02 0.3,-0.71 0.61,-1.42 1.72,-3.14 1.63,-2.44 4.06,-3.15 10.36,-3.25 4.97,-0.1 10.04,-0.1 15.02,-0.21l0 42.93c0,9.75 0,17.76 -0.51,22.03 -0.41,2.94 -0.92,5.17 -2.95,5.58 -0.91,0.2 -2.13,0.4 -3.04,0.4 -0.61,0 -0.81,0.31 -0.81,0.61 0,0.61 0.51,0.81 1.62,0.81 3.05,0 9.44,-0.3 9.95,-0.3 0.5,0 6.9,0.3 12.48,0.3 1.12,0 1.62,-0.3 1.62,-0.81 0,-0.3 -0.2,-0.61 -0.81,-0.61 -0.91,0 -3.14,-0.2 -4.56,-0.4 -3.05,-0.41 -3.66,-2.64 -3.96,-5.58 -0.51,-4.27 -0.51,-12.28 -0.51,-22.03l0 -42.93zm71.66 73.78c24.46,0 40.49,-18.77 40.49,-41.5 0,-23.65 -17.05,-38.06 -39.88,-38.06 -28.01,0 -39.98,23.24 -39.98,39.68 0,18.27 11.56,39.88 39.37,39.88zm2.74 -3.85c-18.27,0 -32.47,-15.22 -32.47,-38.87 0,-22.23 12.68,-33.39 29.63,-33.39 16.03,0 30.85,13.09 30.85,37.45 0,29.53 -18.87,34.81 -28.01,34.81zm58.06 -27c0,9.04 -0.1,14.21 -0.2,18.17 -0.2,7.61 -1.52,9.03 -3.65,9.54 -0.71,0.2 -1.32,0.2 -2.34,0.3 -0.61,0.1 -1.11,0.31 -1.11,0.61 0,0.61 0.5,0.81 1.62,0.81 2.64,0.11 5.07,-0.3 7.51,-0.3 3.96,0 8.63,0.2 12.69,0.3 3.95,0.11 7.3,0.31 14.81,0.31 3.96,0 4.77,0 5.48,-2.64 0.51,-2.13 1.32,-9.03 1.32,-9.84 0,-0.71 0,-1.53 -0.61,-1.53 -0.5,0 -0.71,0.41 -0.91,1.53 -0.81,4.36 -1.93,6.49 -5.18,7.51 -2.74,0.81 -6.08,0.91 -9.13,0.91 -3.96,0 -6.7,-0.2 -8.42,-0.91 -2.54,-1.02 -3.15,-3.25 -3.35,-7.41 -0.1,-2.13 0,-13.91 0,-17.36l0 -8.93c0,-0.4 0.2,-0.71 0.71,-0.71 1.72,0 11.77,0.2 14.51,0.51 3.65,0.41 4.87,1.83 5.28,3.35 0.3,0.91 0.4,1.93 0.4,2.84 0,0.81 0.11,1.62 0.72,1.62 0.4,0 0.6,-0.5 0.71,-1.52 0.1,-1.42 0.1,-3.75 0.4,-6.9 0.31,-3.35 0.81,-5.07 0.81,-5.68 0,-0.61 -0.2,-0.81 -0.5,-0.81 -0.41,0 -0.71,0.4 -1.22,1.01 -1.02,1.22 -2.34,1.52 -5.08,1.73 -2.33,0.2 -14.81,0.2 -16.13,0.2 -0.51,0 -0.61,-0.31 -0.61,-1.02l0 -28.01c0,-0.71 0.2,-1.01 0.61,-1.01 1.11,0 12.18,0.1 13.9,0.3 4.47,0.41 6.6,1.42 7.31,3.76 0.3,0.81 0.51,2.03 0.51,3.35 0,0.81 0.2,1.32 0.81,1.32 0.4,0 0.71,-0.71 0.81,-1.73 0.2,-2.64 0.3,-4.57 0.41,-6.09 0.2,-2.84 0.81,-4.06 0.81,-4.77 0,-0.51 -0.1,-0.91 -0.41,-0.91 -0.3,0 -0.51,0.1 -1.12,0.4 -0.6,0.31 -2.43,0.51 -4.66,0.61 -2.34,0.11 -22.53,0.11 -23.24,0.11 -6.4,-0.31 -9.14,-0.31 -11.47,-0.31 -1.12,0 -1.63,0.2 -1.63,0.81 0,0.41 0.61,0.51 1.32,0.61 0.92,0.1 2.24,0.1 2.95,0.31 3.35,0.71 4.16,2.33 4.36,5.78 0.2,3.25 0.2,6.09 0.2,21.92l0 17.86zm27.4 -65.66c-0.71,-0.71 -1.21,-0.81 -1.72,-0.81 -0.41,0 -1.52,0.61 -2.94,1.62 -2.64,1.73 -9.64,7.92 -12.49,10.56 -0.5,0.51 -0.81,0.91 -0.81,1.22 0,0.2 0.41,0.4 0.61,0.4 0.2,0 0.91,-0.3 1.62,-0.61 3.46,-1.62 9.34,-4.36 14.42,-6.19 1.62,-0.61 3.75,-0.81 4.16,-0.81 0.4,0 0.91,-0.3 0.4,-1.32 -0.91,-1.83 -2.23,-3.14 -3.25,-4.06zm64.77 65.66c0,9.04 -0.11,14.21 -0.21,18.17 -0.2,7.61 -1.52,9.03 -3.65,9.54 -0.71,0.2 -1.32,0.2 -2.34,0.3 -0.6,0.1 -1.11,0.31 -1.11,0.61 0,0.61 0.51,0.81 1.62,0.81 2.64,0.11 5.08,-0.3 7.51,-0.3 3.96,0 8.63,0.2 12.69,0.3 3.96,0.11 7.3,0.31 14.81,0.31 3.96,0 4.77,0 5.48,-2.64 0.51,-2.13 1.32,-9.03 1.32,-9.84 0,-0.71 0,-1.53 -0.6,-1.53 -0.51,0 -0.72,0.41 -0.92,1.53 -0.81,4.36 -1.93,6.49 -5.17,7.51 -2.74,0.81 -6.09,0.91 -9.14,0.91 -3.96,0 -6.7,-0.2 -8.42,-0.91 -2.54,-1.02 -3.15,-3.25 -3.35,-7.41 -0.1,-2.13 0,-13.91 0,-17.36l0 -8.93c0,-0.4 0.2,-0.71 0.71,-0.71 1.73,0 11.77,0.2 14.51,0.51 3.66,0.41 4.87,1.83 5.28,3.35 0.3,0.91 0.41,1.93 0.41,2.84 0,0.81 0.1,1.62 0.71,1.62 0.4,0 0.61,-0.5 0.71,-1.52 0.1,-1.42 0.1,-3.75 0.4,-6.9 0.31,-3.35 0.81,-5.07 0.81,-5.68 0,-0.61 -0.2,-0.81 -0.5,-0.81 -0.41,0 -0.71,0.4 -1.22,1.01 -1.02,1.22 -2.33,1.52 -5.08,1.73 -2.33,0.2 -14.81,0.2 -16.13,0.2 -0.51,0 -0.61,-0.31 -0.61,-1.02l0 -28.01c0,-0.71 0.2,-1.01 0.61,-1.01 1.12,0 12.18,0.1 13.9,0.3 4.47,0.41 6.6,1.42 7.31,3.76 0.3,0.81 0.51,2.03 0.51,3.35 0,0.81 0.2,1.32 0.81,1.32 0.4,0 0.71,-0.71 0.81,-1.73 0.2,-2.64 0.31,-4.57 0.41,-6.09 0.2,-2.84 0.81,-4.06 0.81,-4.77 0,-0.51 -0.1,-0.91 -0.41,-0.91 -0.3,0 -0.5,0.1 -1.11,0.4 -0.61,0.31 -2.44,0.51 -4.67,0.61 -2.34,0.11 -22.53,0.11 -23.24,0.11 -6.4,-0.31 -9.14,-0.31 -11.47,-0.31 -1.12,0 -1.62,0.2 -1.62,0.81 0,0.41 0.6,0.51 1.32,0.61 0.91,0.1 2.23,0.1 2.94,0.31 3.35,0.71 4.16,2.33 4.36,5.78 0.21,3.25 0.21,6.09 0.21,21.92l0 17.86zm92.16 0c0,9.75 0,17.76 -0.51,22.03 -0.41,2.94 -0.91,5.17 -2.94,5.58 -0.92,0.2 -2.13,0.4 -3.05,0.4 -0.61,0 -0.81,0.31 -0.81,0.61 0,0.61 0.51,0.81 1.62,0.81 3.05,0 9.44,-0.3 9.75,-0.3 0.5,0 6.9,0.3 12.48,0.3 1.12,0 1.62,-0.3 1.62,-0.81 0,-0.3 -0.2,-0.61 -0.81,-0.61 -0.91,0 -3.15,-0.2 -4.57,-0.4 -3.04,-0.41 -3.65,-2.64 -3.95,-5.58 -0.51,-4.27 -0.51,-12.28 -0.51,-22.03l0 -41.71c0,-1.01 0.2,-1.72 0.81,-1.93 0.91,-0.4 2.64,-0.6 4.36,-0.6 2.34,0 8.53,-0.41 13.91,5.07 5.38,5.48 5.68,12.28 5.68,14.82 0,10.65 -7.71,17.35 -17.56,17.35 -2.13,0 -2.74,0.1 -2.74,0.91 0,0.51 0.61,0.71 1.12,0.71 0.51,0.11 1.62,0.11 2.13,0.11 14.41,0 24.97,-9.75 24.97,-22.94 0,-6.6 -2.84,-11.16 -5.08,-13.29 -1.62,-1.53 -6.19,-5.79 -18.87,-5.79 -4.67,0 -10.56,0.31 -12.79,0.31 -0.81,0 -6.9,-0.31 -11.47,-0.31 -1.11,0 -1.62,0.2 -1.62,0.81 0,0.41 0.4,0.61 0.81,0.61 0.91,0 2.64,0.1 3.45,0.31 3.35,0.71 4.16,2.33 4.36,5.78 0.21,3.25 0.21,6.09 0.21,21.92l0 17.86zm60.29 0c0,9.75 0,17.76 -0.51,22.03 -0.4,2.94 -1.01,5.27 -3.04,5.68 -0.91,0.2 -2.03,0.3 -2.64,0.3 -0.91,0 -1.12,0.31 -1.12,0.61 0,0.61 0.51,0.81 1.63,0.81 3.04,0 9.44,-0.3 9.94,-0.3 0.51,0 7.01,0.3 12.59,0.3 1.11,0 1.52,-0.3 1.52,-0.81 0,-0.3 -0.3,-0.61 -1.22,-0.61 -0.61,0 -2.74,-0.2 -4.16,-0.4 -3.04,-0.41 -3.65,-2.64 -3.96,-5.58 -0.5,-4.27 -0.5,-12.28 -0.5,-22.03l0 -17.86c0,-15.83 0,-18.67 0.2,-21.92 0.2,-3.55 1.01,-5.28 3.75,-5.78 1.22,-0.21 1.83,-0.31 2.54,-0.31 0.41,0 0.81,-0.2 0.81,-0.61 0,-0.61 -0.5,-0.81 -1.62,-0.81 -3.04,0 -9.44,0.31 -9.95,0.31 -0.5,0 -6.9,-0.31 -10.25,-0.31 -1.11,0 -1.62,0.2 -1.62,0.81 0,0.41 0.41,0.61 0.81,0.61 0.71,0 2.03,0.1 3.15,0.41 2.23,0.5 3.25,2.23 3.45,5.68 0.2,3.25 0.2,6.09 0.2,21.92l0 17.86zm110.63 -45.97c-0.2,-1.93 -0.5,-2.74 -1.21,-2.74 -0.71,0 -1.12,0.71 -1.53,1.62l-29.83 63.74 -31.06 -63.84c-0.5,-1.11 -0.91,-1.52 -1.52,-1.52 -0.61,0 -1.01,0.91 -1.12,2.03l-7.3 65.97c-0.51,4.16 -0.71,7.81 -4.06,8.42 -1.52,0.3 -2.23,0.3 -3.05,0.3 -0.5,0 -1.01,0.21 -1.01,0.61 0,0.71 0.71,0.81 1.72,0.81 2.74,0 7.62,-0.3 8.53,-0.3 0.81,0 5.99,0.3 9.74,0.3 1.02,0 1.52,-0.2 1.52,-0.91 0,-0.3 -0.4,-0.51 -1.01,-0.51 -0.61,0 -1.93,0 -3.65,-0.4 -1.53,-0.31 -2.75,-1.12 -2.75,-3.66 0,-1.72 0.11,-3.14 0.21,-4.77l4.16 -47.8c1.11,2.74 12.79,27.81 13.7,29.64 0.51,1.01 9.23,18.57 11.87,23.54 1.93,3.66 2.44,4.67 3.15,4.67 0.91,0 1.22,-0.91 3.35,-5.38l25.17 -53.38 4.87 52.98c0.2,1.82 0.3,3.34 -0.41,3.65 -0.51,0.2 -0.71,0.3 -0.71,0.71 0,0.51 0.51,0.81 2.84,1.01 3.76,0.31 15.33,0.61 17.56,0.61 1.22,0 1.52,-0.2 1.52,-0.81 0,-0.51 -0.61,-0.61 -1.11,-0.61 -1.02,0 -3.35,0 -6.3,-0.91 -4.36,-1.42 -5.07,-7.1 -5.48,-10.76l-6.8 -62.31zm35.13 45.97c0,9.04 -0.1,14.21 -0.2,18.17 -0.21,7.61 -1.52,9.03 -3.66,9.54 -0.71,0.2 -1.32,0.2 -2.33,0.3 -0.61,0.1 -1.12,0.31 -1.12,0.61 0,0.61 0.51,0.81 1.63,0.81 2.64,0.11 5.07,-0.3 7.51,-0.3 3.96,0 8.62,0.2 12.68,0.3 3.96,0.11 7.31,0.31 14.82,0.31 3.96,0 4.77,0 5.48,-2.64 0.51,-2.13 1.32,-9.03 1.32,-9.84 0,-0.71 0,-1.53 -0.61,-1.53 -0.51,0 -0.71,0.41 -0.91,1.53 -0.81,4.36 -1.93,6.49 -5.18,7.51 -2.74,0.81 -6.09,0.91 -9.13,0.91 -3.96,0 -6.7,-0.2 -8.43,-0.91 -2.53,-1.02 -3.14,-3.25 -3.34,-7.41 -0.11,-2.13 0,-13.91 0,-17.36l0 -8.93c0,-0.4 0.2,-0.71 0.71,-0.71 1.72,0 11.77,0.2 14.51,0.51 3.65,0.41 4.87,1.83 5.28,3.35 0.3,0.91 0.4,1.93 0.4,2.84 0,0.81 0.1,1.62 0.71,1.62 0.41,0 0.61,-0.5 0.71,-1.52 0.1,-1.42 0.1,-3.75 0.41,-6.9 0.3,-3.35 0.81,-5.07 0.81,-5.68 0,-0.61 -0.2,-0.81 -0.51,-0.81 -0.4,0 -0.71,0.4 -1.22,1.01 -1.01,1.22 -2.33,1.52 -5.07,1.73 -2.33,0.2 -14.82,0.2 -16.14,0.2 -0.5,0 -0.6,-0.31 -0.6,-1.02l0 -28.01c0,-0.71 0.2,-1.01 0.6,-1.01 1.12,0 12.18,0.1 13.91,0.3 4.46,0.41 6.59,1.42 7.3,3.76 0.31,0.81 0.51,2.03 0.51,3.35 0,0.81 0.21,1.32 0.81,1.32 0.41,0 0.71,-0.71 0.82,-1.73 0.2,-2.64 0.3,-4.57 0.4,-6.09 0.2,-2.84 0.81,-4.06 0.81,-4.77 0,-0.51 -0.1,-0.91 -0.4,-0.91 -0.31,0 -0.51,0.1 -1.12,0.4 -0.61,0.31 -2.43,0.51 -4.67,0.61 -2.33,0.11 -22.53,0.11 -23.24,0.11 -6.39,-0.31 -9.13,-0.31 -11.46,-0.31 -1.12,0 -1.63,0.2 -1.63,0.81 0,0.41 0.61,0.51 1.32,0.61 0.91,0.1 2.23,0.1 2.94,0.31 3.35,0.71 4.16,2.33 4.37,5.78 0.2,3.25 0.2,6.09 0.2,21.92l0 17.86zm55.85 14.52c0,9.23 -0.51,12.17 -3.05,12.88 -1.52,0.51 -3.35,0.61 -4.16,0.61 -0.51,0 -0.81,0.21 -0.81,0.61 0,0.71 0.61,0.81 1.62,0.81 4.57,0 8.83,-0.3 9.76,-0.3 0.92,0 4.98,0.3 10.74,0.3 1.22,0 1.83,-0.2 1.83,-0.81 0,-0.4 -0.3,-0.61 -0.81,-0.61 -0.91,0 -3.13,-0.1 -5.06,-0.61 -2.74,-0.81 -3.75,-3.45 -3.96,-11.77l-1.32 -48.61c3.25,3.65 14.7,16.44 26.46,29.13 10.74,11.57 25.34,26.48 26.45,27.5 5.38,5.38 6.62,6.49 7.43,6.49 0.71,0 0.91,-0.5 0.91,-7.2l0.2 -59.27c0,-7 0.71,-8.52 3.56,-9.13 1.21,-0.21 1.82,-0.31 2.63,-0.41 0.71,-0.1 1.12,-0.3 1.12,-0.71 0,-0.61 -0.71,-0.71 -1.83,-0.71 -4.16,0 -7.51,0.31 -8.64,0.31 -1.12,0 -5.99,-0.31 -10.54,-0.31 -1.21,0 -2.03,0.1 -2.03,0.71 0,0.41 0.31,0.71 1.42,0.71 0.92,0 2.52,0.1 4.35,0.51 3.15,0.81 3.86,3.04 3.96,9.64l1.12 51.55c-3.25,-3.34 -14.3,-15.73 -24.33,-26.48 -15.61,-16.75 -30.71,-33.09 -32.24,-34.81 -1.01,-1.02 -2.75,-3.25 -3.56,-3.25 -0.82,0 -1.12,1.12 -1.12,5.07 0.1,19.69 -0.1,6.5 -0.1,43.14l0 15.02zm118.33 -57.45c4.26,0.11 8.52,0.11 12.78,0.21 9.75,0.2 12.18,2.53 12.48,5.58 0,0.41 0.11,0.71 0.11,1.12 0.1,1.42 0.3,1.72 0.81,1.72 0.4,0 0.71,-0.4 0.71,-1.32 0,-1.11 0.3,-8.12 0.3,-11.16 0,-0.61 0,-1.22 -0.5,-1.22 -0.41,0 -1.32,0.3 -2.85,0.51 -1.62,0.3 -3.95,0.51 -7.2,0.51l-38.06 0c-1.22,0 -5.07,-0.21 -8.02,-0.51 -2.74,-0.21 -3.75,-1.22 -4.46,-1.22 -0.41,0 -0.81,1.32 -1.02,1.93 -0.2,0.81 -2.23,9.54 -2.23,10.55 0,0.61 0.2,0.92 0.51,0.92 0.41,0 0.71,-0.21 1.01,-1.02 0.31,-0.71 0.61,-1.42 1.73,-3.14 1.62,-2.44 4.06,-3.15 10.35,-3.25 4.97,-0.1 10.05,-0.1 15.02,-0.21l0 42.93c0,9.75 0,17.76 -0.51,22.03 -0.4,2.94 -0.91,5.17 -2.94,5.58 -0.91,0.2 -2.13,0.4 -3.04,0.4 -0.61,0 -0.82,0.31 -0.82,0.61 0,0.61 0.51,0.81 1.63,0.81 3.04,0 9.44,-0.3 9.94,-0.3 0.51,0 6.9,0.3 12.49,0.3 1.11,0 1.62,-0.3 1.62,-0.81 0,-0.3 -0.2,-0.61 -0.81,-0.61 -0.92,0 -3.15,-0.2 -4.57,-0.4 -3.04,-0.41 -3.65,-2.64 -3.96,-5.58 -0.5,-4.27 -0.5,-12.28 -0.5,-22.03l0 -42.93zm45.78 42.93c0,9.04 -0.1,14.21 -0.2,18.17 -0.21,7.61 -1.53,9.03 -3.66,9.54 -0.71,0.2 -1.32,0.2 -2.33,0.3 -0.61,0.1 -1.12,0.31 -1.12,0.61 0,0.61 0.51,0.81 1.62,0.81 2.64,0.11 5.08,-0.3 7.51,-0.3 3.96,0 8.63,0.2 12.69,0.3 3.96,0.11 7.31,0.31 14.82,0.31 3.96,0 4.77,0 5.48,-2.64 0.5,-2.13 1.32,-9.03 1.32,-9.84 0,-0.71 0,-1.53 -0.61,-1.53 -0.51,0 -0.71,0.41 -0.92,1.53 -0.81,4.36 -1.92,6.49 -5.17,7.51 -2.74,0.81 -6.09,0.91 -9.13,0.91 -3.96,0 -6.7,-0.2 -8.43,-0.91 -2.54,-1.02 -3.14,-3.25 -3.35,-7.41 -0.1,-2.13 0,-13.91 0,-17.36l0 -8.93c0,-0.4 0.21,-0.71 0.71,-0.71 1.73,0 11.78,0.2 14.52,0.51 3.65,0.41 4.87,1.83 5.27,3.35 0.31,0.91 0.41,1.93 0.41,2.84 0,0.81 0.1,1.62 0.71,1.62 0.4,0 0.61,-0.5 0.71,-1.52 0.1,-1.42 0.1,-3.75 0.41,-6.9 0.3,-3.35 0.81,-5.07 0.81,-5.68 0,-0.61 -0.21,-0.81 -0.51,-0.81 -0.41,0 -0.71,0.4 -1.22,1.01 -1.01,1.22 -2.33,1.52 -5.07,1.73 -2.34,0.2 -14.82,0.2 -16.14,0.2 -0.51,0 -0.61,-0.31 -0.61,-1.02l0 -28.01c0,-0.71 0.21,-1.01 0.61,-1.01 1.12,0 12.18,0.1 13.9,0.3 4.47,0.41 6.6,1.42 7.31,3.76 0.31,0.81 0.51,2.03 0.51,3.35 0,0.81 0.2,1.32 0.81,1.32 0.41,0 0.71,-0.71 0.81,-1.73 0.21,-2.64 0.31,-4.57 0.41,-6.09 0.2,-2.84 0.81,-4.06 0.81,-4.77 0,-0.51 -0.1,-0.91 -0.4,-0.91 -0.31,0 -0.51,0.1 -1.12,0.4 -0.61,0.31 -2.44,0.51 -4.67,0.61 -2.33,0.11 -22.53,0.11 -23.24,0.11 -6.39,-0.31 -9.13,-0.31 -11.47,-0.31 -1.11,0 -1.62,0.2 -1.62,0.81 0,0.41 0.61,0.51 1.32,0.61 0.91,0.1 2.23,0.1 2.94,0.31 3.35,0.71 4.16,2.33 4.37,5.78 0.2,3.25 0.2,6.09 0.2,21.92l0 17.86zm65.47 -17.86c0,-15.83 0,-18.67 0.2,-21.92 0.2,-3.55 1.02,-5.28 3.96,-5.78 1.22,-0.21 2.64,-0.31 3.35,-0.31 0.4,0 0.81,-0.2 0.81,-0.61 0,-0.61 -0.51,-0.81 -1.62,-0.81 -3.05,0 -10.46,0.31 -10.96,0.31 -0.51,0 -6.9,-0.31 -11.47,-0.31 -1.12,0 -1.63,0.2 -1.63,0.81 0,0.41 0.41,0.61 0.82,0.61 0.91,0 2.64,0.1 3.45,0.31 3.35,0.71 4.16,2.33 4.36,5.78 0.2,3.25 0.2,6.09 0.2,21.92l0 17.86c0,9.75 0,17.76 -0.5,22.03 -0.41,2.94 -0.92,5.17 -2.95,5.58 -0.91,0.2 -2.13,0.4 -3.04,0.4 -0.61,0 -0.81,0.31 -0.81,0.61 0,0.61 0.5,0.81 1.62,0.81 3.76,0 6.8,-0.3 9.95,-0.3 9.84,0 18.47,0.61 27.19,0.61 5.38,0 5.69,-0.41 6.4,-2.74 0.81,-2.94 1.52,-9.03 1.52,-10.15 0,-1.12 -0.1,-1.52 -0.61,-1.52 -0.61,0 -0.81,0.5 -0.91,1.32 -0.31,1.92 -1.32,4.46 -2.64,6.09 -2.44,2.94 -6.9,3.04 -12.28,3.04 -7.92,0 -10.55,-0.71 -12.18,-2.33 -1.83,-1.83 -2.23,-8.33 -2.23,-23.24l0 -18.07z"/>
   <path class="fil0" d="M504.26 130.12c0.67,0 0.93,0.27 1.2,0.8l12.42 32.86c0.81,2.14 0,3.34 -0.8,3.61 -0.53,0.13 -0.93,0.4 -0.93,0.93 0,0.8 1.47,0.8 4,0.94 9.22,0.26 18.97,0.26 20.98,0.26 1.47,0 2.67,-0.26 2.67,-1.06 0,-0.67 -0.67,-0.81 -1.47,-0.81 -1.07,0 -3.21,-0.13 -5.21,-0.8 -2.81,-0.8 -6.68,-2.94 -11.49,-14.82 -8.15,-20.31 -29.12,-75.47 -31.12,-80.55 -1.6,-4.14 -2.14,-4.81 -2.94,-4.81 -0.8,0 -1.34,0.81 -2.94,5.21l-30.32 82.95c-2.4,6.68 -5.07,11.76 -11.22,12.56 -1.07,0.13 -2.27,0.26 -3.2,0.26 -1.21,0 -1.87,0.27 -1.87,0.81 0,0.8 0.8,1.06 2.53,1.06 6.28,0 13.63,-0.4 15.1,-0.4 1.47,0 6.81,0.4 10.01,0.4 1.21,0 2.41,-0.26 2.41,-1.06 0,-0.54 -0.4,-0.81 -1.74,-0.81 -0.4,0 -0.8,0 -1.2,0 -2.27,0 -4.81,-1.2 -4.81,-3.87 0,-2.4 0.67,-5.61 1.87,-8.95l8.02 -23.64c0.26,-0.67 0.66,-1.07 1.33,-1.07l28.72 0zm-27.25 -4.81c-0.4,0 -0.67,-0.26 -0.4,-0.93l11.75 -36.07c0.67,-2 1.34,-2 2.01,0l12.69 36.07c0.13,0.53 0.13,0.93 -0.54,0.93l-25.51 0zm50.27 5.48c0,12.82 0,23.37 -0.67,28.98 -0.53,3.88 -1.2,6.82 -3.87,7.35 -1.21,0.27 -2.81,0.53 -4.01,0.53 -0.8,0 -1.07,0.41 -1.07,0.81 0,0.8 0.67,1.06 2.14,1.06 4,0 12.42,-0.4 12.82,-0.4 0.67,0 9.08,0.4 16.43,0.4 1.47,0 2.14,-0.4 2.14,-1.06 0,-0.4 -0.27,-0.81 -1.07,-0.81 -1.2,0 -4.14,-0.26 -6.01,-0.53 -4.01,-0.53 -4.81,-3.47 -5.21,-7.35 -0.67,-5.61 -0.67,-16.16 -0.67,-28.98l0 -54.9c0,-1.33 0.27,-2.27 1.07,-2.54 1.2,-0.53 3.47,-0.8 5.74,-0.8 3.07,0 11.22,-0.53 18.3,6.68 7.08,7.21 7.48,16.16 7.48,19.5 0,14.03 -10.15,22.84 -23.11,22.84 -2.8,0 -3.6,0.14 -3.6,1.2 0,0.67 0.8,0.94 1.47,0.94 0.66,0.13 2.13,0.13 2.8,0.13 18.97,0 32.86,-12.82 32.86,-30.18 0,-8.69 -3.74,-14.7 -6.68,-17.5 -2.14,-2.01 -8.15,-7.62 -24.84,-7.62 -6.15,0 -13.89,0.41 -16.83,0.41 -1.07,0 -9.09,-0.41 -15.1,-0.41 -1.47,0 -2.13,0.27 -2.13,1.07 0,0.54 0.53,0.8 1.07,0.8 1.2,0 3.47,0.14 4.54,0.41 4.4,0.93 5.47,3.07 5.74,7.61 0.27,4.27 0.27,8.01 0.27,28.85l0 23.51z"/>
   <polygon class="fil0" points="426.15,30.45 599.67,30.45 599.67,58.61 596.67,58.61 596.67,33.44 427.65,33.44 427.65,58.61 424.66,58.61 424.66,30.45 "/>
   <polygon class="fil0" points="426.15,204.37 599.67,204.37 599.67,176.2 596.67,176.2 596.67,201.38 427.65,201.38 427.65,176.2 424.66,176.2 424.66,204.37 "/>
   <path class="fil0" d="M513.33 1.16l68.38 68.39 -4.66 0 -64.89 -64.89 -64.89 64.89 -4.65 0c23.18,-23.19 46.36,-46.37 69.54,-69.55l1.17 1.16z"/>
   <path class="fil0" d="M513.33 245.64l68.38 -68.38 -4.66 0 -64.89 64.89 -64.89 -64.89 -4.65 0c23.18,23.18 46.36,46.36 69.54,69.54l1.17 -1.16z"/>
   <path class="fil0" d="M242.18 410.26l-2.04 0 -1.67 -4.42 -6.69 0 -1.57 4.42 -2.05 0 6.04 -15.77 1.92 0 6.06 15.77zm-4.32 -6.08l-2.47 -6.72c-0.08,-0.22 -0.16,-0.57 -0.24,-1.05l-0.05 0c-0.07,0.44 -0.15,0.79 -0.25,1.05l-2.45 6.72 5.46 0zm19.98 6.08l0 -15.77 4.35 0c5.55,0 8.33,2.56 8.33,7.69 0,2.43 -0.77,4.38 -2.31,5.86 -1.55,1.48 -3.61,2.22 -6.2,2.22l-4.17 0zm1.84 -14.1l0 12.43 2.35 0c2.07,0 3.68,-0.56 4.83,-1.67 1.15,-1.1 1.72,-2.67 1.72,-4.7 0,-4.04 -2.14,-6.06 -6.44,-6.06l-2.46 0zm38.99 -1.67l-5.84 15.77 -2.03 0 -5.72 -15.77 2.06 0 4.36 12.5c0.14,0.4 0.25,0.87 0.32,1.4l0.04 0c0.06,-0.44 0.18,-0.91 0.37,-1.42l4.45 -12.48 1.99 0zm21.82 16.03c-2.24,0 -4.03,-0.74 -5.37,-2.21 -1.34,-1.47 -2.02,-3.39 -2.02,-5.75 0,-2.54 0.69,-4.56 2.06,-6.07 1.37,-1.5 3.24,-2.26 5.6,-2.26 2.17,0 3.92,0.73 5.25,2.2 1.33,1.46 2,3.38 2,5.75 0,2.57 -0.68,4.6 -2.05,6.1 -1.36,1.49 -3.18,2.24 -5.47,2.24zm0.13 -14.62c-1.65,0 -3,0.6 -4.03,1.79 -1.03,1.2 -1.55,2.77 -1.55,4.71 0,1.94 0.5,3.5 1.51,4.69 1.01,1.18 2.32,1.77 3.94,1.77 1.73,0 3.09,-0.56 4.09,-1.69 1,-1.13 1.49,-2.71 1.49,-4.74 0,-2.08 -0.48,-3.69 -1.45,-4.83 -0.96,-1.13 -2.3,-1.7 -4,-1.7zm34.55 13.7c-1.17,0.61 -2.62,0.92 -4.35,0.92 -2.25,0 -4.04,-0.72 -5.39,-2.17 -1.35,-1.44 -2.03,-3.34 -2.03,-5.68 0,-2.52 0.77,-4.56 2.28,-6.11 1.52,-1.56 3.44,-2.33 5.77,-2.33 1.5,0 2.73,0.22 3.72,0.65l0 1.97c-1.13,-0.63 -2.38,-0.95 -3.74,-0.95 -1.81,0 -3.28,0.61 -4.4,1.81 -1.13,1.21 -1.69,2.83 -1.69,4.85 0,1.92 0.53,3.45 1.58,4.59 1.05,1.14 2.43,1.71 4.14,1.71 1.58,0 2.95,-0.35 4.11,-1.05l0 1.79zm28.74 0.66l-2.04 0 -1.67 -4.42 -6.69 0 -1.57 4.42 -2.05 0 6.04 -15.77 1.92 0 6.06 15.77zm-4.32 -6.08l-2.47 -6.72c-0.08,-0.22 -0.16,-0.57 -0.24,-1.05l-0.05 0c-0.07,0.44 -0.15,0.79 -0.25,1.05l-2.45 6.72 5.46 0zm30.4 5.42c-1.16,0.61 -2.61,0.92 -4.35,0.92 -2.24,0 -4.03,-0.72 -5.38,-2.17 -1.35,-1.44 -2.03,-3.34 -2.03,-5.68 0,-2.52 0.76,-4.56 2.28,-6.11 1.52,-1.56 3.44,-2.33 5.77,-2.33 1.49,0 2.73,0.22 3.71,0.65l0 1.97c-1.12,-0.63 -2.37,-0.95 -3.73,-0.95 -1.81,0 -3.28,0.61 -4.4,1.81 -1.13,1.21 -1.69,2.83 -1.69,4.85 0,1.92 0.52,3.45 1.57,4.59 1.06,1.14 2.44,1.71 4.15,1.71 1.58,0 2.95,-0.35 4.1,-1.05l0 1.79zm18.4 0.66l-1.85 0 0 -15.77 1.85 0 0 15.77zm29.68 0l-2.05 0 -1.67 -4.42 -6.69 0 -1.57 4.42 -2.05 0 6.04 -15.77 1.92 0 6.07 15.77zm-4.33 -6.08l-2.47 -6.72c-0.08,-0.22 -0.16,-0.57 -0.24,-1.05l-0.04 0c-0.08,0.44 -0.16,0.79 -0.26,1.05l-2.45 6.72 5.46 0zm34.5 6.08l-8.36 0 0 -15.77 8.01 0 0 1.67 -6.16 0 0 5.25 5.7 0 0 1.66 -5.7 0 0 5.52 6.51 0 0 1.67zm33.26 -0.66c-1.16,0.61 -2.62,0.92 -4.35,0.92 -2.25,0 -4.04,-0.72 -5.39,-2.17 -1.35,-1.44 -2.02,-3.34 -2.02,-5.68 0,-2.52 0.76,-4.56 2.27,-6.11 1.52,-1.56 3.45,-2.33 5.78,-2.33 1.49,0 2.73,0.22 3.71,0.65l0 1.97c-1.13,-0.63 -2.38,-0.95 -3.74,-0.95 -1.81,0 -3.27,0.61 -4.4,1.81 -1.12,1.21 -1.69,2.83 -1.69,4.85 0,1.92 0.53,3.45 1.58,4.59 1.05,1.14 2.43,1.71 4.14,1.71 1.58,0 2.95,-0.35 4.11,-1.05l0 1.79zm22.6 0.92c-2.24,0 -4.03,-0.74 -5.37,-2.21 -1.34,-1.47 -2.02,-3.39 -2.02,-5.75 0,-2.54 0.69,-4.56 2.06,-6.07 1.37,-1.5 3.24,-2.26 5.6,-2.26 2.17,0 3.92,0.73 5.25,2.2 1.33,1.46 2,3.38 2,5.75 0,2.57 -0.68,4.6 -2.05,6.1 -1.36,1.49 -3.18,2.24 -5.47,2.24zm0.13 -14.62c-1.65,0 -3,0.6 -4.03,1.79 -1.03,1.2 -1.55,2.77 -1.55,4.71 0,1.94 0.5,3.5 1.51,4.69 1.01,1.18 2.32,1.77 3.94,1.77 1.73,0 3.09,-0.56 4.09,-1.69 1,-1.13 1.49,-2.71 1.49,-4.74 0,-2.08 -0.48,-3.69 -1.45,-4.83 -0.96,-1.13 -2.3,-1.7 -4,-1.7zm36.53 14.36l-2.27 0 -8.11 -12.57c-0.21,-0.31 -0.37,-0.64 -0.51,-0.99l-0.06 0c0.06,0.34 0.09,1.06 0.09,2.17l0 11.39 -1.85 0 0 -15.77 2.4 0 7.89 12.37c0.33,0.51 0.54,0.86 0.64,1.06l0.04 0c-0.07,-0.46 -0.11,-1.23 -0.11,-2.32l0 -11.11 1.85 0 0 15.77zm16.72 -0.64l0 -2.18c0.25,0.22 0.55,0.42 0.9,0.59 0.35,0.18 0.72,0.33 1.1,0.45 0.39,0.12 0.77,0.22 1.16,0.28 0.39,0.07 0.75,0.1 1.08,0.1 1.13,0 1.98,-0.21 2.54,-0.63 0.56,-0.42 0.84,-1.03 0.84,-1.82 0,-0.43 -0.09,-0.79 -0.28,-1.11 -0.19,-0.32 -0.44,-0.6 -0.77,-0.86 -0.33,-0.27 -0.72,-0.51 -1.17,-0.75 -0.46,-0.24 -0.94,-0.49 -1.46,-0.75 -0.55,-0.28 -1.06,-0.57 -1.54,-0.85 -0.48,-0.29 -0.89,-0.6 -1.24,-0.95 -0.35,-0.34 -0.63,-0.73 -0.83,-1.17 -0.2,-0.43 -0.3,-0.94 -0.3,-1.53 0,-0.72 0.15,-1.34 0.47,-1.87 0.31,-0.54 0.73,-0.97 1.24,-1.32 0.51,-0.34 1.1,-0.6 1.76,-0.77 0.65,-0.17 1.32,-0.25 2,-0.25 1.55,0 2.69,0.19 3.4,0.56l0 2.08c-0.93,-0.65 -2.13,-0.97 -3.58,-0.97 -0.41,0 -0.81,0.04 -1.22,0.12 -0.4,0.09 -0.76,0.23 -1.07,0.42 -0.32,0.19 -0.57,0.44 -0.77,0.74 -0.2,0.3 -0.3,0.66 -0.3,1.1 0,0.4 0.08,0.75 0.23,1.04 0.15,0.29 0.37,0.56 0.66,0.8 0.29,0.24 0.65,0.48 1.07,0.7 0.42,0.23 0.91,0.48 1.46,0.75 0.57,0.28 1.1,0.57 1.61,0.88 0.5,0.31 0.94,0.65 1.32,1.02 0.39,0.38 0.69,0.79 0.91,1.24 0.23,0.46 0.34,0.98 0.34,1.57 0,0.77 -0.15,1.43 -0.46,1.97 -0.3,0.54 -0.72,0.98 -1.23,1.31 -0.52,0.34 -1.11,0.58 -1.79,0.73 -0.67,0.15 -1.38,0.23 -2.13,0.23 -0.25,0 -0.56,-0.02 -0.92,-0.06 -0.37,-0.04 -0.74,-0.1 -1.12,-0.18 -0.38,-0.07 -0.74,-0.17 -1.09,-0.28 -0.34,-0.12 -0.61,-0.24 -0.82,-0.38zm37.57 -5.74c0,4.43 -2,6.64 -6,6.64 -3.82,0 -5.73,-2.13 -5.73,-6.39l0 -9.64 1.84 0 0 9.52c0,3.23 1.37,4.85 4.09,4.85 2.63,0 3.95,-1.56 3.95,-4.68l0 -9.69 1.85 0 0 9.39zm25.44 6.38l-8.18 0 0 -15.77 1.85 0 0 14.1 6.33 0 0 1.67zm23.83 -14.1l-4.55 0 0 14.1 -1.85 0 0 -14.1 -4.54 0 0 -1.67 10.94 0 0 1.67zm21.15 14.36c-2.24,0 -4.03,-0.74 -5.37,-2.21 -1.34,-1.47 -2.02,-3.39 -2.02,-5.75 0,-2.54 0.69,-4.56 2.06,-6.07 1.37,-1.5 3.24,-2.26 5.6,-2.26 2.17,0 3.92,0.73 5.25,2.2 1.33,1.46 2,3.38 2,5.75 0,2.57 -0.69,4.6 -2.05,6.1 -1.36,1.49 -3.18,2.24 -5.47,2.24zm0.13 -14.62c-1.65,0 -3,0.6 -4.03,1.79 -1.04,1.2 -1.55,2.77 -1.55,4.71 0,1.94 0.5,3.5 1.51,4.69 1,1.18 2.32,1.77 3.94,1.77 1.73,0 3.09,-0.56 4.09,-1.69 1,-1.13 1.49,-2.71 1.49,-4.74 0,-2.08 -0.48,-3.69 -1.45,-4.83 -0.96,-1.13 -2.3,-1.7 -4,-1.7zm35.12 14.36l-2.2 0 -2.64 -4.42c-0.24,-0.41 -0.47,-0.76 -0.7,-1.05 -0.23,-0.29 -0.46,-0.53 -0.7,-0.71 -0.24,-0.18 -0.49,-0.32 -0.77,-0.4 -0.27,-0.09 -0.58,-0.13 -0.93,-0.13l-1.51 0 0 6.71 -1.85 0 0 -15.77 4.7 0c0.69,0 1.33,0.09 1.91,0.26 0.58,0.18 1.09,0.43 1.52,0.79 0.43,0.35 0.76,0.79 1,1.31 0.25,0.53 0.37,1.14 0.37,1.84 0,0.55 -0.09,1.06 -0.25,1.51 -0.17,0.46 -0.4,0.87 -0.7,1.23 -0.31,0.36 -0.68,0.67 -1.1,0.92 -0.43,0.25 -0.91,0.45 -1.45,0.59l0 0.04c0.27,0.12 0.49,0.25 0.69,0.4 0.19,0.15 0.38,0.33 0.55,0.54 0.18,0.2 0.35,0.43 0.53,0.69 0.17,0.26 0.36,0.56 0.57,0.91l2.96 4.74zm-9.45 -14.1l0 5.72 2.5 0c0.46,0 0.89,-0.07 1.28,-0.21 0.4,-0.14 0.73,-0.34 1.02,-0.6 0.28,-0.26 0.51,-0.58 0.67,-0.96 0.16,-0.37 0.24,-0.79 0.24,-1.26 0,-0.85 -0.27,-1.5 -0.82,-1.98 -0.54,-0.47 -1.33,-0.71 -2.37,-0.71l-2.52 0zm26.79 14.1l-1.84 0 0 -15.77 1.84 0 0 15.77zm29.68 0l-2.04 0 -1.67 -4.42 -6.69 0 -1.57 4.42 -2.05 0 6.04 -15.77 1.92 0 6.06 15.77zm-4.32 -6.08l-2.47 -6.72c-0.08,-0.22 -0.16,-0.57 -0.24,-1.05l-0.05 0c-0.07,0.44 -0.15,0.79 -0.25,1.05l-2.45 6.72 5.46 0z"/>
  </g>
 </g>
</svg>
