<?xml version="1.0" encoding="UTF-8"?>
<!DOCTYPE svg PUBLIC "-//W3C//DTD SVG 1.1//EN" "http://www.w3.org/Graphics/SVG/1.1/DTD/svg11.dtd">
<!-- Creator: CorelDRAW 2018 (64 Bit Versão de avaliação) -->
<svg xmlns="http://www.w3.org/2000/svg" xml:space="preserve" width="300px" height="300px" version="1.1" style="shape-rendering:geometricPrecision; text-rendering:geometricPrecision; image-rendering:optimizeQuality; fill-rule:evenodd; clip-rule:evenodd"
viewBox="0 0 109.96 109.96"
 xmlns:xlink="http://www.w3.org/1999/xlink">
 <defs>
  <style type="text/css">
   <![CDATA[
    .fil0 {fill:none}
    .fil1 {fill:#3B3B3B;fill-rule:nonzero}
    .fil2 {fill:#DFC89F;fill-rule:nonzero}
   ]]>
  </style>
 </defs>
 <g id="Camada_x0020_1">
  <metadata id="CorelCorpID_0Corel-Layer"/>
  <g id="_2741326134560">
   <rect class="fil0" x="1.27" y="1.27" width="107.42" height="107.42"/>
   <g>
    <path class="fil1" d="M58.97 66.27l0 -24.72c-0.8,0.16 -1.62,0.25 -2.46,0.25 -0.84,0 -1.67,-0.09 -2.46,-0.25l0 24.72c0.8,-0.13 1.62,-0.2 2.46,-0.2 0.84,0 1.66,0.07 2.46,0.2z"/>
    <path class="fil1" d="M39.11 66.74c0,-0.61 -0.05,-1.24 -0.15,-1.85 -0.2,-1.18 -1.23,-2.04 -2.43,-2.04l-19.45 0c-1.2,0 -2.22,0.86 -2.42,2.04 -0.11,0.61 -0.16,1.24 -0.16,1.85 0,6.09 4.95,11.04 11.03,11.04l2.55 0c6.08,0 11.03,-4.95 11.03,-11.04z"/>
    <path class="fil1" d="M98.36 64.89c-0.2,-1.18 -1.23,-2.04 -2.43,-2.04l-19.44 0c-1.2,0 -2.23,0.86 -2.43,2.04 -0.1,0.61 -0.16,1.24 -0.16,1.85 0,6.09 4.95,11.04 11.04,11.04l2.54 0c6.09,0 11.04,-4.95 11.04,-11.04 0,-0.61 -0.06,-1.24 -0.16,-1.85z"/>
    <path class="fil1" d="M58.97 17.43l0 -3.51c0,-1.36 -1.1,-2.46 -2.46,-2.46 -1.36,0 -2.46,1.1 -2.46,2.46l0 3.51c0.79,-0.16 1.62,-0.25 2.46,-0.25 0.84,0 1.66,0.09 2.46,0.25z"/>
    <path class="fil1" d="M46.47 78.07l20.08 0c-1.48,-4.12 -5.42,-7.08 -10.04,-7.08 -4.62,0 -8.56,2.96 -10.04,7.08z"/>
    <path class="fil1" d="M82.25 90.95c-1.19,-0.82 -10.99,-7.57 -11.56,-7.96l-28.37 0c-0.54,0.37 -9.86,6.79 -11.56,7.96 -0.88,0.61 -1.27,1.73 -0.95,2.76 0.31,1.03 1.26,1.73 2.33,1.73l48.74 0c1.07,0 2.02,-0.7 2.33,-1.73 0.32,-1.03 -0.07,-2.15 -0.96,-2.76z"/>
    <path class="fil1" d="M26.93 49.91l3.59 8.01 5.4 0 -5.24 -11.68c3.2,-0.35 5.82,-1.19 7.95,-2.54 2.64,-1.68 4.17,-3.88 5.52,-5.83 1.53,-2.2 2.86,-4.11 5.69,-5.21 1.19,2.49 3.73,4.22 6.67,4.22 2.98,0 5.55,-1.78 6.72,-4.33 3.03,1.08 4.39,3.04 5.97,5.32 1.35,1.95 2.88,4.15 5.52,5.83 2.12,1.34 4.72,2.18 7.89,2.53l-5.41 11.69 5.42 0 3.72 -8.01 3.59 8.01 5.39 0c0,0 -6.64,-14.82 -6.64,-14.82 -0.13,-0.29 -0.27,-0.55 -0.49,-0.79 -0.21,-0.23 -0.46,-0.42 -0.74,-0.55 -0.33,-0.16 -0.7,-0.25 -1.06,-0.25 0,0 0,0 -0.01,0 -8.66,0 -10.64,-2.84 -13.13,-6.44 -2.02,-2.91 -4.24,-6.1 -9.63,-7.55 -0.86,-3.11 -3.72,-5.41 -7.11,-5.41 -3.43,0 -6.32,2.34 -7.15,5.51 -5.12,1.49 -7.28,4.61 -9.25,7.45 -2.5,3.6 -4.48,6.44 -13.14,6.44 -0.46,0 -0.91,0.13 -1.3,0.38 -0.4,0.25 -0.73,0.62 -0.93,1.05l-6.95 14.98 5.43 0 3.71 -8.01z"/>
   </g>
   <path class="fil2" d="M33.37 109.96l-33.37 0c0,-11.12 0,-22.25 0,-33.37l2.54 0 0 30.83 30.83 0 0 2.54z"/>
   <polygon class="fil2" points="76.59,0 109.96,0 109.96,33.37 107.42,33.37 107.42,2.54 76.59,2.54 "/>
  </g>
 </g>
</svg>
